<?xml version="1.0" encoding="UTF-8"?>
<!-- Generated by Pixelmator Pro 3.1.1 -->
<svg width="2880" height="1800" viewBox="0 0 2880 1800" xmlns="http://www.w3.org/2000/svg" xmlns:xlink="http://www.w3.org/1999/xlink">
    <g id="Group" opacity="0.02">
        <path id="nikhil-yates" fill="#ffffff" fill-rule="evenodd" stroke="none" d="M 941.105469 1121.404297 C 938.171387 1121.412354 935.266785 1120.994385 932.388672 1120.150391 C 921.570557 1115.698975 912.28717 1101.973389 904.539063 1078.974609 C 896.790955 1055.97583 890.431458 1029.044312 885.460938 998.181641 C 880.490479 967.319031 876.61554 937.717407 873.837891 909.376953 C 871.274841 883.226074 869.52301 862.711548 868.578125 847.804688 C 869.351135 861.028015 869.971802 878.204895 870.439453 899.361328 C 870.951111 922.508484 870.622681 945.06134 869.453125 967.021484 C 867.845032 986.013977 860.498108 1001.297485 847.414063 1012.871094 C 834.330017 1024.44458 818.578369 1029.935303 800.158203 1029.341797 C 781.737976 1028.748291 763.646912 1019.621948 745.884766 1001.964844 C 728.122559 984.307678 713.759216 955.745972 702.794922 916.277344 C 702.090454 913.599243 701.414001 910.909546 700.761719 908.210938 C 693.755066 930.382874 686.321045 950.434753 678.455078 968.357422 C 664.128357 1001.000671 650.166016 1019.474304 636.570313 1023.777344 C 622.974548 1028.080322 611.353699 1010.793152 601.705078 971.917969 C 593.810791 937.494141 588.182739 914.126038 584.820313 901.810547 C 581.457947 889.495056 579.555786 885.413696 579.117188 889.568359 C 578.67865 893.722961 578.753113 903.07019 579.337891 917.611328 C 580.068848 934.823364 580.361023 954.780396 580.214844 977.482422 C 580.068665 1000.184448 578.132202 1021.404236 574.404297 1041.138672 C 570.676453 1060.873047 563.877686 1074.745361 554.009766 1082.757813 C 544.141785 1090.770264 529.925659 1088.397339 511.359375 1075.636719 C 510.178864 1074.733643 509.026154 1073.807129 507.898438 1072.857422 C 499.364594 1086.341064 488.860046 1093.203613 476.382813 1093.441406 C 460.813477 1093.738159 444.878387 1086.171631 428.578125 1070.740234 C 412.277832 1055.308838 398.426392 1034.534668 387.023438 1008.419922 C 385.405853 1004.715332 383.893555 1000.950928 382.486328 997.126953 C 371.503235 1037.070923 357.155304 1061.61145 339.439453 1070.740234 C 320.434631 1080.533203 299.455902 1070.961304 276.503906 1042.027344 C 253.551926 1013.093384 230.525909 963.312012 207.427734 892.683594 C 210.059174 871.910461 210.937683 849.654724 210.060547 825.914063 C 208.891022 795.347961 203.555191 763.000244 194.052734 728.873047 C 186.012268 701.571289 178.336868 682.134155 171.027344 670.560547 C 163.717819 658.987061 156.882736 652.978394 150.523438 652.533203 C 144.164154 652.088135 138.427216 654.980957 133.310547 661.212891 C 128.193878 667.444824 123.770828 675.011353 120.042969 683.914063 C 116.315102 692.816895 113.463806 700.682373 111.490234 707.507813 C 109.516663 714.333252 108.53125 717.8927 108.53125 718.189453 L 113.574219 723.085938 C 113.574219 722.789185 114.45079 719.67334 116.205078 713.738281 C 117.959366 707.803101 120.445915 700.977539 123.662109 693.261719 C 126.878304 685.546021 130.751297 678.943115 135.283203 673.453125 C 139.815109 667.963135 144.895096 665.515869 150.523438 666.109375 C 156.151779 666.702881 162.219131 672.193481 168.724609 682.580078 C 175.230103 692.966553 181.990662 710.32605 189.007813 734.660156 C 198.217896 767.303589 203.336029 798.019104 204.359375 826.804688 C 205.090317 845.203735 204.651062 862.563049 203.042969 878.884766 C 201.727249 892.535645 199.827026 905.592834 197.341797 918.056641 L 197.341797 918.501953 C 190.909409 948.177795 183.417358 972.290527 174.865234 990.837891 C 166.313095 1009.385315 159.697632 1020.884521 155.019531 1025.335938 C 150.926193 1030.083984 143.835281 1034.237793 133.748047 1037.798828 C 123.66082 1041.359985 112.33223 1040.544922 99.759766 1035.351563 C 87.187302 1030.158325 75.016472 1016.729797 63.248047 995.066406 C 51.479626 973.403076 41.867825 939.571716 34.412109 893.574219 C 26.810207 843.718811 21.98612 800.243164 19.939453 763.148438 C 17.892788 726.053589 16.722069 692.965088 16.429688 663.882813 C 16.137306 638.955078 15.371526 615.438599 14.128906 593.330078 C 12.886288 571.221558 9.998701 549.038086 5.466797 526.78125 C -1.988917 488.49939 -1.076153 457.635376 8.207031 434.191406 C 17.490215 410.747559 31.744614 395.317383 50.96875 387.898438 C 70.192879 380.479492 90.988243 381.665894 113.355469 391.458984 C 114.524994 392.05249 115.693756 392.646729 116.863281 393.240234 L 117.082031 393.240234 L 117.740234 393.685547 L 120.371094 395.019531 L 122.126953 395.910156 L 122.345703 395.910156 L 123.662109 396.800781 L 126.074219 398.136719 L 127.388672 399.027344 C 149.609711 412.678223 169.052948 435.676758 185.71875 468.023438 C 203.407898 502.44751 213.85997 547.998779 217.076172 604.679688 L 222.779297 603.789063 C 219.416916 544.140625 208.378494 496.214355 189.666016 460.009766 C 183.672211 448.139404 177.240097 437.457275 170.369141 427.960938 C 179.433029 414.013306 189.55658 401.030518 200.740234 389.011719 C 211.923889 376.993042 223.107361 369.350342 234.291016 366.085938 C 245.47467 362.821655 255.525757 367.125732 264.443359 378.996094 C 274.969177 395.020996 282.533661 417.573975 287.138672 446.65625 C 291.743683 475.738647 294.558685 505.859863 295.582031 537.019531 C 296.605377 568.179077 296.750488 594.813354 296.019531 616.921875 C 295.288574 639.030396 294.923828 650.083984 294.923828 650.083984 C 294.923828 650.083984 298.504639 648.451782 305.667969 645.1875 C 312.831299 641.923096 321.602814 640.439575 331.982422 640.736328 C 342.362061 641.033081 352.814056 645.632324 363.339844 654.535156 C 373.865662 663.437866 382.71167 679.610718 389.875 703.054688 C 396.139496 723.556885 399.887787 751.662964 401.121094 787.371094 C 401.52713 785.084167 401.87265 782.796692 402.154297 780.509766 C 403.908569 766.265381 404.273346 753.282471 403.25 741.560547 C 402.226685 729.838623 400.874542 720.34082 399.193359 713.070313 C 397.512146 705.799683 396.671875 702.166016 396.671875 702.166016 C 391.116608 674.567383 389.837097 652.458374 392.833984 635.839844 C 395.830902 619.221313 401.205017 606.684204 408.953125 598.226563 C 416.701233 589.768921 424.813934 583.906982 433.292969 580.642578 C 436.509155 580.049072 439.652679 579.159668 442.722656 577.972656 C 448.131714 576.785645 452.51651 576.117188 455.878906 575.96875 C 459.241302 575.820435 460.923828 575.746094 460.923828 575.746094 C 460.923828 575.746094 460.960114 581.162476 461.033203 591.994141 C 461.106293 602.825806 461.726959 617.440796 462.896484 635.839844 C 464.06601 654.238892 466.258423 675.159668 469.474609 698.603516 C 473.567932 723.234497 479.854919 747.867065 488.333984 772.498047 C 490.576355 779.234863 492.801788 786.330322 495.009766 793.779297 C 499.452637 770.468384 503.659973 744.458374 507.630859 715.742188 C 513.478455 673.454102 516.841553 625.89917 517.71875 573.076172 C 518.303467 513.130859 519.80072 467.057739 522.212891 434.859375 C 524.625 402.661133 529.376587 380.405273 536.466797 368.089844 C 543.557068 355.774292 554.265015 349.763794 568.591797 350.060547 C 579.117615 350.3573 586.792847 358.14856 591.617188 373.431641 C 596.441467 388.7146 599.365295 406.519653 600.388672 426.847656 C 601.411987 447.175537 601.631653 465.50061 601.046875 481.822266 C 600.622375 493.669678 600.276245 501.870361 600.005859 506.525391 C 600.444519 501.183228 601.37561 491.168457 602.800781 476.480469 C 604.701294 456.894409 607.369202 434.859497 610.804688 410.376953 C 614.240173 385.894409 618.479858 364.750732 623.523438 346.945313 C 628.567017 329.139771 634.342163 320.236328 640.847656 320.236328 C 647.353149 320.236328 654.552979 335.074219 662.447266 364.75 C 671.657227 401.548096 675.677307 434.564209 674.507813 463.794922 C 673.338257 493.025635 669.537842 518.02771 663.105469 538.800781 C 656.673096 559.573853 650.057678 575.821045 643.259766 587.542969 C 637.980591 596.64624 634.14032 602.826782 631.726563 606.113281 C 631.151001 606.81665 630.572449 607.526489 629.992188 608.242188 C 630.449463 607.778076 631.032166 607.058716 631.726563 606.113281 C 665.517822 564.821411 691.217712 544.831543 708.826172 546.144531 C 726.734497 547.47998 738.026978 563.652832 742.705078 594.664063 C 745.059265 610.270264 746.171265 627.776245 746.044922 647.177734 C 751.788269 643.032104 758.130066 639.54895 765.072266 636.730469 C 776.475098 631.685547 789.486389 629.162109 804.105469 629.162109 L 804.105469 618.035156 C 789.194031 618.035156 775.817993 620.556641 763.976563 625.601563 C 761.198914 626.491821 758.49469 627.678345 755.863281 629.162109 C 753.231873 613.730713 751.001221 595.925659 749.173828 575.746094 C 747.346436 555.566528 746.725769 534.497314 747.310547 512.537109 C 748.772461 484.641846 754.364258 461.938477 764.085938 444.429688 C 773.807617 426.921021 784.735352 414.903687 796.869141 408.375 C 809.002991 401.846313 819.602234 401.252075 828.666016 406.59375 C 832.028381 409.264526 835.208191 417.053833 838.205078 429.962891 C 841.201965 442.871826 843.833679 456.894531 846.099609 472.029297 C 848.365601 487.16394 850.155029 499.480225 851.470703 508.976563 C 852.20166 515.208496 852.64093 518.767944 852.787109 519.658203 C 852.933289 519.658203 852.824463 517.951782 852.458984 514.539063 C 852.093506 511.126343 851.617981 506.898438 851.033203 501.853516 C 850.156067 492.653931 849.277588 483.67627 848.400391 474.921875 C 847.523254 466.16748 847.013367 460.604492 846.867188 458.230469 C 846.28241 426.774048 850.04657 403.775513 858.160156 389.234375 C 866.273743 374.693237 876.762207 365.789673 889.626953 362.525391 C 902.49176 359.260986 915.795227 358.66687 929.537109 360.744141 C 943.132874 363.118286 954.060547 375.434448 962.320313 397.691406 C 970.580078 419.948242 975.039429 445.691162 975.697266 474.921875 C 976.355164 504.152588 972.004639 530.489746 962.648438 553.933594 C 953.584595 577.377563 947.372131 601.787231 944.009766 627.160156 C 940.647339 652.532959 938.930542 674.419312 938.857422 692.818359 C 938.784363 711.217407 938.746094 720.416016 938.746094 720.416016 C 938.746094 720.416016 940.648254 721.973877 944.449219 725.089844 C 948.250183 728.205811 953.65863 734.511597 960.675781 744.007813 C 967.692932 753.50415 975.988953 767.749634 985.564453 786.742188 C 995.139893 805.734741 1005.628357 830.957886 1017.03125 862.414063 C 1019.234924 868.771057 1021.177063 875.125427 1022.857422 881.476563 C 1026.168457 862.271667 1032.266602 842.860168 1041.154297 823.242188 C 1047.73291 808.997803 1051.898071 794.75415 1053.652344 780.509766 C 1055.406738 766.265381 1055.773438 753.282471 1054.75 741.560547 C 1053.726685 729.838623 1052.374634 720.34082 1050.693359 713.070313 C 1049.012207 705.799683 1048.169922 702.166016 1048.169922 702.166016 C 1042.614624 674.567383 1041.337036 652.458374 1044.333984 635.839844 C 1047.330933 619.221313 1052.703003 606.684204 1060.451172 598.226563 C 1068.199219 589.768921 1076.31189 583.906982 1084.791016 580.642578 C 1088.007202 580.049072 1091.150635 579.159668 1094.220703 577.972656 C 1099.629761 576.785645 1104.016479 576.117188 1107.378906 575.96875 C 1110.741333 575.820435 1112.421875 575.746094 1112.421875 575.746094 C 1112.421875 575.746094 1112.45813 581.162476 1112.53125 591.994141 C 1112.60437 602.825806 1113.224976 617.440796 1114.394531 635.839844 C 1115.563965 654.238892 1117.75647 675.159668 1120.972656 698.603516 C 1122.8927 710.157104 1125.296631 721.712036 1128.181641 733.265625 C 1129.434937 724.803589 1130.905273 716.21875 1132.595703 707.507813 C 1140.782349 668.929199 1148.385254 636.581543 1155.402344 610.466797 C 1161.834839 586.429321 1167.170654 563.728027 1171.410156 542.361328 C 1175.649658 520.994751 1178.134277 497.179199 1178.865234 470.916016 C 1179.503052 448.000854 1178.415894 420.396484 1175.603516 388.105469 C 1174.778198 416.362305 1171.262329 442.780396 1165.050781 467.355469 C 1157.887451 495.695923 1148.20105 519.511475 1135.994141 538.800781 C 1123.787231 558.090088 1109.863037 571.147217 1094.220703 577.972656 C 1091.296875 578.566162 1088.153442 579.455566 1084.791016 580.642578 C 1081.13623 581.532959 1077.48291 581.978516 1073.828125 581.978516 C 1054.96936 581.978516 1037.827393 572.703613 1022.404297 554.15625 C 1006.98114 535.608765 994.6651 510.608765 985.455078 479.152344 C 976.245056 447.695923 971.640625 412.973267 971.640625 374.988281 C 971.640625 336.706421 976.245056 301.911499 985.455078 270.603516 C 994.6651 239.295532 1006.98114 214.367676 1022.404297 195.820313 C 1037.827393 177.272827 1054.96936 168 1073.828125 168 C 1092.540771 168 1109.608154 177.272827 1125.03125 195.820313 C 1140.454468 214.367676 1152.770508 239.295532 1161.980469 270.603516 C 1167.205078 288.363647 1170.946167 307.247559 1173.207031 327.251953 C 1174.262451 315.35376 1176.768188 307.52417 1180.728516 303.767578 C 1188.549683 296.348511 1198.747925 298.572998 1211.320313 310.443359 C 1223.8927 322.313721 1235.513672 337.894287 1246.185547 357.183594 C 1256.857422 376.4729 1263.217041 393.537109 1265.263672 408.375 C 1269.503174 444.57959 1270.015015 475.961548 1266.798828 502.521484 C 1263.582642 529.081299 1257.918335 553.266357 1249.804688 575.078125 C 1241.691162 596.889893 1232.224365 619.073364 1221.40625 641.626953 C 1219.798096 644.891357 1218.190186 648.304199 1216.582031 651.865234 C 1242.458008 616.551025 1264.716064 600.896118 1283.355469 604.902344 C 1301.994995 608.908691 1316.869873 626.046997 1327.980469 656.316406 C 1339.090942 686.585815 1346.363403 723.458374 1349.798828 766.933594 C 1353.234375 810.408386 1352.722412 854.031128 1348.263672 897.802734 C 1343.80481 941.57428 1335.180298 979.041809 1322.388672 1010.201172 C 1309.596924 1041.360596 1292.602051 1059.76001 1271.404297 1065.398438 C 1250.206421 1071.036865 1224.623535 1057.385254 1194.654297 1024.445313 C 1188.340698 1017.350586 1182.283203 1009.324951 1176.480469 1000.376953 C 1175.553589 1026.838135 1171.852295 1047.250366 1165.378906 1061.613281 C 1155.949585 1082.53479 1143.450073 1093.144653 1127.880859 1093.441406 C 1127.637573 1093.446045 1127.393799 1093.448486 1127.150391 1093.449219 C 1111.81311 1093.499512 1096.121704 1085.93042 1080.076172 1070.740234 C 1063.776001 1055.308838 1049.924316 1034.534668 1038.521484 1008.419922 C 1034.44751 999.089783 1031.040405 989.380554 1028.300781 979.292969 C 1025.126343 1003.03186 1019.397278 1024.983643 1011.111328 1045.144531 C 1000.439453 1071.11084 987.939941 1091.067993 973.613281 1105.015625 C 962.420593 1115.912231 951.584351 1121.375244 941.105469 1121.404297 Z M 442.722656 577.972656 C 439.798859 578.566162 436.655365 579.455566 433.292969 580.642578 C 429.638214 581.532959 425.98291 581.978516 422.328125 581.978516 C 403.469513 581.978516 386.329407 572.703613 370.90625 554.15625 C 355.483124 535.608765 343.167145 510.608765 333.957031 479.152344 C 324.746948 447.695923 320.140625 412.973267 320.140625 374.988281 C 320.140625 336.706421 324.746948 301.911499 333.957031 270.603516 C 343.167145 239.295532 355.483124 214.367676 370.90625 195.820313 C 386.329407 177.272827 403.469513 168 422.328125 168 C 441.040558 168 458.108093 177.272827 473.53125 195.820313 C 488.954376 214.367676 501.272308 239.295532 510.482422 270.603516 C 519.692505 301.911499 524.296875 336.706421 524.296875 374.988281 C 524.296875 408.22522 520.714111 439.015015 513.550781 467.355469 C 506.387421 495.695923 496.703094 519.511475 484.496094 538.800781 C 472.289093 558.090088 458.365082 571.147217 442.722656 577.972656 Z M 1587.554688 1107.478516 C 1568.852539 1107.414917 1552.863647 1102.364502 1539.589844 1092.328125 C 1517.807251 1075.858032 1502.275269 1052.044067 1492.992188 1020.884766 C 1483.709106 989.725525 1479.505615 956.931396 1480.382813 922.507813 C 1481.259888 888.084167 1486.083984 857.964478 1494.855469 832.146484 C 1495.586304 832.146484 1496.317871 832.293091 1497.048828 832.589844 C 1499.387939 832.589844 1501.799927 832.589844 1504.285156 832.589844 C 1506.770386 832.589844 1509.182495 832.443237 1511.521484 832.146484 C 1529.795532 828.585388 1546.205933 821.314026 1560.751953 810.333984 C 1575.297852 799.353943 1585.421631 790.598999 1591.123047 784.070313 L 1598.140625 872.207031 L 1603.841797 869.982422 L 1595.289063 765.820313 L 1591.78125 770.271484 C 1591.63501 770.86499 1587.796387 774.797729 1580.267578 782.068359 C 1572.738647 789.338928 1562.907227 796.979736 1550.773438 804.992188 C 1538.639648 813.0047 1525.410767 818.198181 1511.083984 820.572266 C 1508.744995 820.869019 1506.405396 821.017578 1504.066406 821.017578 C 1501.873535 821.314331 1499.606567 821.314331 1497.267578 821.017578 C 1494.34375 820.720825 1491.494385 819.680969 1488.716797 817.900391 L 1488.496094 817.457031 C 1475.777588 806.180237 1466.276489 782.587036 1459.990234 746.679688 C 1453.704102 710.771851 1449.68396 670.560669 1447.929688 626.046875 C 1446.175415 581.533203 1445.808716 540.283936 1446.832031 502.298828 C 1447.562988 461.939697 1450.011353 425.735474 1454.177734 393.685547 C 1458.344238 361.63562 1465.326416 339.00647 1475.121094 325.800781 C 1484.915894 312.594971 1498.803467 313.709229 1516.785156 329.140625 C 1529.065063 341.604492 1538.457397 366.532227 1544.962891 403.923828 C 1551.468384 441.315308 1555.891479 483.008301 1558.230469 529.005859 C 1560.56958 575.00354 1561.774536 617.06958 1561.847656 655.203125 C 1561.920776 693.336548 1561.73938 719.376465 1561.300781 733.324219 C 1563.201172 730.356567 1564.954468 724.71936 1566.5625 716.410156 C 1568.170654 708.100952 1569.194214 695.933228 1569.632813 679.908203 C 1569.925171 642.813477 1567.950439 598.894165 1563.710938 548.148438 C 1560.202393 504.228149 1557.937378 462.013428 1556.914063 421.505859 C 1555.890747 380.998291 1558.742065 348.281128 1565.466797 323.353516 C 1569.267822 310.296143 1574.091797 299.240601 1579.939453 290.189453 C 1585.787109 281.138306 1592.620239 277.727417 1600.441406 279.953125 C 1608.262695 282.178833 1616.852783 293.678101 1626.208984 314.451172 C 1637.17334 341.75293 1642.690552 372.243652 1642.763672 405.925781 C 1642.836792 439.60791 1641.119873 473.810547 1637.611328 508.53125 C 1635.564575 530.194702 1634.029297 551.115356 1633.005859 571.294922 C 1631.982544 591.474609 1632.274658 610.614502 1633.882813 628.716797 C 1637.976196 664.031006 1645.651489 693.040161 1656.908203 715.742188 C 1659.09436 720.151123 1661.307251 724.443604 1663.542969 728.623047 C 1663.819458 724.775391 1664.129272 721.000732 1664.474609 717.300781 C 1668.933472 669.522705 1676.862671 631.684326 1688.265625 603.789063 C 1699.668457 575.893799 1712.242432 555.567261 1725.984375 542.806641 L 1726.203125 542.806641 L 1727.738281 541.470703 L 1727.957031 541.025391 L 1728.396484 540.580078 L 1729.052734 540.134766 C 1748.642456 523.812988 1769.256226 523.369385 1790.892578 538.800781 C 1801.856934 546.813232 1811.980591 559.127686 1821.263672 575.746094 C 1830.546875 592.364624 1838.258423 613.138672 1844.398438 638.066406 L 1844.398438 638.509766 L 1849.441406 633.613281 L 1849.441406 633.169922 C 1843.009033 606.758301 1834.858154 584.723511 1824.990234 567.066406 C 1815.122314 549.409302 1804.414307 536.426514 1792.865234 528.117188 C 1788.918091 525.149658 1784.970581 522.774658 1781.023438 520.994141 C 1782.046753 502.595093 1784.093994 480.782959 1787.164063 455.558594 C 1790.234009 430.334106 1794.693481 408.967651 1800.541016 391.458984 C 1800.541016 391.458984 1802.477539 392.127441 1806.351563 393.462891 C 1810.225586 394.79834 1814.830078 396.727539 1820.166016 399.25 C 1825.502075 401.772339 1830.581909 404.888062 1835.40625 408.597656 C 1840.230469 412.307129 1843.813232 416.386475 1846.152344 420.837891 L 1841.546875 461.791016 C 1841.546875 461.791016 1842.094971 458.898193 1843.191406 453.111328 C 1844.287842 447.324585 1845.639893 440.72168 1847.248047 433.302734 C 1848.856079 425.883789 1850.464233 419.206665 1852.072266 413.271484 C 1853.68042 407.336426 1854.996216 404.367188 1856.019531 404.367188 C 1857.042847 404.367188 1861.941528 404.812866 1870.712891 405.703125 C 1879.484375 406.593384 1889.608032 408.745483 1901.083984 412.158203 C 1908.24707 414.28833 1915.110718 417.285889 1921.675781 421.150391 C 1924.415771 402.318848 1927.491577 386.775635 1930.90625 374.542969 C 1934.634155 361.188843 1936.498047 354.511719 1936.498047 354.511719 C 1936.498047 354.511719 1936.461792 354.511719 1936.388672 354.511719 C 1936.315552 354.511719 1936.243042 354.439453 1936.169922 354.291016 C 1936.096802 354.1427 1936.058594 353.994019 1936.058594 353.845703 C 1936.058594 353.697266 1936.058594 353.623047 1936.058594 353.623047 C 1936.058594 353.623047 1936.096802 353.623047 1936.169922 353.623047 C 1936.243042 353.623047 1936.388062 353.697266 1936.607422 353.845703 C 1936.82666 353.994019 1937.082642 354.214966 1937.375 354.511719 C 1937.667358 354.808472 1938.070435 355.17981 1938.582031 355.625 C 1939.09375 356.070068 1939.678101 356.664307 1940.335938 357.40625 C 1940.993774 358.148193 1941.761597 359.037476 1942.638672 360.076172 C 1943.515869 361.114746 1944.537476 362.303223 1945.707031 363.638672 C 1946.876587 364.974121 1948.156006 366.457642 1949.544922 368.089844 C 1950.933716 369.722046 1952.505493 371.502686 1954.259766 373.431641 C 1956.014038 375.360474 1957.914307 377.584961 1959.960938 380.107422 C 1962.007568 382.629883 1964.238281 385.30188 1966.650391 388.121094 C 1969.0625 390.940308 1971.730469 394.130249 1974.654297 397.691406 C 1990.589111 415.793579 2006.780029 425.660889 2023.226563 427.292969 C 2039.672974 428.925171 2055.424805 427.959473 2070.482422 424.398438 C 2083.785645 421.430786 2095.80957 420.615723 2106.554688 421.951172 C 2109.193115 422.279053 2111.709473 422.978516 2114.105469 424.048828 C 2122.459473 408.571655 2133.722656 408.093872 2147.890625 422.619141 C 2156.515869 432.115479 2163.897217 441.018799 2170.037109 449.328125 C 2176.177246 457.637329 2180.052002 463.125977 2181.660156 465.796875 C 2182.098633 466.390381 2182.316406 466.6875 2182.316406 466.6875 C 2194.888916 445.914429 2209.179443 429.444458 2225.1875 417.277344 C 2241.195313 405.110229 2255.85083 404.813232 2269.154297 416.386719 C 2279.241455 428.553833 2285.564697 450.217285 2288.123047 481.376953 C 2290.681152 512.536499 2289.256592 541.025757 2283.847656 566.84375 C 2276.684326 559.128052 2269.228516 555.269531 2261.480469 555.269531 C 2250.808594 555.269531 2239.953369 560.834473 2228.916016 571.962891 C 2217.878662 583.091431 2207.60791 596.371338 2198.105469 611.802734 C 2188.603271 627.234253 2180.454102 642.072021 2173.65625 656.316406 C 2166.858398 670.560791 2162.070557 681.391602 2159.292969 688.810547 C 2157.684814 693.558594 2156.880859 696.822998 2156.880859 698.603516 L 2162.582031 698.603516 C 2162.582031 698.603516 2162.654541 698.456909 2162.800781 698.160156 C 2162.947021 697.863403 2163.313721 696.972046 2163.898438 695.488281 C 2166.529785 688.366089 2171.134277 677.904785 2177.712891 664.105469 C 2184.291504 650.306152 2192.18457 635.839722 2201.394531 620.705078 C 2210.604736 606.163818 2220.436035 593.55249 2230.888672 582.869141 C 2241.341309 572.185913 2251.539551 566.84375 2261.480469 566.84375 C 2269.654297 566.84375 2277.366455 571.644287 2284.621094 581.238281 C 2285.915039 555.624146 2289.239258 526.936401 2294.591797 495.175781 C 2302.340088 450.661987 2308.699463 416.535645 2313.669922 392.794922 C 2318.640381 369.054321 2322.295654 352.807129 2324.634766 344.052734 C 2326.973877 335.29834 2328.142578 330.919922 2328.142578 330.919922 L 2370.902344 354.957031 C 2370.902344 354.957031 2372.437988 360.893311 2375.507813 372.763672 C 2378.577881 384.634033 2382.672363 398.654785 2387.789063 414.828125 C 2392.905762 431.001465 2398.753418 446.284912 2405.332031 460.677734 C 2411.910645 475.070557 2418.780029 485.234741 2425.943359 491.169922 C 2439.685303 500.369385 2447.799805 510.75647 2450.285156 522.330078 C 2452.770264 533.903687 2451.674072 554.527222 2446.996094 584.203125 C 2445.387939 595.47998 2442.572998 605.05188 2438.552734 612.916016 C 2434.532471 620.780029 2429.891846 627.234497 2424.628906 632.279297 C 2406.208984 625.453857 2388.665771 624.71106 2372 630.052734 C 2355.334229 635.394287 2341.627686 642.071533 2330.882813 650.083984 C 2320.137695 658.096436 2314.620361 662.547241 2314.328125 663.4375 L 2316.519531 673.675781 C 2316.958008 672.785522 2322.040039 668.706055 2331.761719 661.435547 C 2341.483398 654.164917 2353.980713 647.785034 2369.257813 642.294922 C 2384.534668 636.804932 2400.72583 636.507813 2417.830078 641.404297 C 2434.934326 646.300781 2451.016602 660.618652 2466.074219 684.359375 C 2480.985596 710.177368 2490.19458 741.041504 2493.703125 776.949219 C 2497.211914 812.856445 2496.699951 849.136047 2492.167969 885.785156 C 2487.635986 922.434265 2480.911865 954.780518 2471.994141 982.824219 C 2463.07666 1010.86792 2453.573486 1029.935547 2443.486328 1040.025391 C 2430.036621 1053.379517 2412.969238 1063.987427 2392.283203 1071.851563 C 2382.263428 1075.660645 2372.279297 1077.573242 2362.328125 1077.587891 C 2351.734863 1077.603516 2341.179688 1075.469971 2330.664063 1071.185547 C 2310.270508 1062.876221 2293.787354 1040.915161 2281.214844 1005.304688 C 2275.904297 988.406494 2271.86377 970.882019 2269.089844 952.732422 C 2268.837158 959.79541 2268.128906 966.78418 2266.960938 973.699219 C 2262.575195 995.956116 2253.914307 1016.433105 2240.976563 1035.128906 C 2228.038574 1053.824707 2211.884033 1063.914673 2192.513672 1065.398438 C 2173.143555 1066.882324 2151.616455 1052.636719 2127.933594 1022.664063 C 2127.641113 1033.644043 2124.499512 1040.02417 2118.505859 1041.804688 C 2112.511963 1043.585205 2106.335938 1037.427979 2099.976563 1023.332031 C 2093.617188 1009.235962 2089.778564 983.862 2088.462891 947.212891 C 2087.147217 910.563782 2091.094727 859.297791 2100.304688 793.417969 C 2104.544434 762.555176 2107.103271 721.157349 2107.980469 669.224609 C 2108.194092 656.571655 2108.293213 644.078003 2108.28125 631.742188 C 2106.344727 633.397339 2104.343506 634.764404 2102.277344 635.839844 C 2093.94458 639.104126 2085.100342 640.810547 2075.744141 640.958984 C 2066.387939 641.1073 2058.239014 640.735962 2051.294922 639.845703 C 2044.35083 638.955444 2040.878906 638.509766 2040.878906 638.509766 C 2040.878906 638.509766 2042.779175 645.26123 2046.580078 658.763672 C 2050.380859 672.266235 2054.876465 691.7052 2060.066406 717.078125 C 2065.256104 742.450928 2070.225342 773.090332 2074.976563 808.998047 C 2079.727783 844.905334 2083.199707 885.563232 2085.392578 930.966797 C 2086.854492 975.776855 2081.153809 1009.606628 2068.289063 1032.457031 C 2055.424316 1055.307373 2039.598267 1068.143677 2020.8125 1070.962891 C 2002.026855 1073.782104 1984.44751 1067.548706 1968.074219 1052.265625 C 1963.436401 1047.936768 1959.226807 1042.969971 1955.445313 1037.367188 C 1954.104614 1047.099609 1949.033325 1056.886963 1940.226563 1066.732422 C 1932.14502 1078.329102 1922.501343 1084.063965 1911.298828 1083.933594 C 1910.747925 1083.927246 1910.193237 1083.905884 1909.634766 1083.871094 C 1897.720215 1083.12915 1887.04834 1075.783569 1877.619141 1061.835938 C 1868.189819 1047.888306 1862.890259 1027.264648 1861.720703 999.962891 C 1861.720703 999.962891 1855.800415 1003.301453 1843.958984 1009.978516 C 1832.117554 1016.655579 1817.425781 1022.367126 1799.882813 1027.115234 C 1782.339966 1031.863403 1764.321411 1032.234741 1745.828125 1028.228516 C 1734.135986 1025.695557 1723.291992 1019.95813 1713.294922 1011.019531 C 1708.878052 1022.785645 1703.533691 1034.087158 1697.257813 1044.921875 C 1681.615356 1071.92688 1658.152222 1090.769775 1626.867188 1101.453125 C 1612.647827 1105.510376 1599.543213 1107.519287 1587.554688 1107.478516 Z M 1768.744141 916.722656 L 1781.902344 812.115234 L 1769.839844 805.4375 L 1803.390625 748.013672 L 1767.427734 682.134766 L 1755.148438 726.648438 L 1779.050781 759.587891 C 1779.050781 759.587891 1778.099731 761.73999 1776.199219 766.042969 C 1774.298706 770.346069 1771.961182 775.687988 1769.183594 782.068359 C 1766.405884 788.448669 1763.738037 794.902954 1761.179688 801.431641 C 1758.62146 807.960327 1756.573975 813.523315 1755.039063 818.123047 C 1753.504028 822.722778 1753.028564 825.469116 1753.613281 826.359375 C 1754.490479 826.952881 1755.916992 827.916565 1757.890625 829.251953 C 1759.864136 830.587402 1761.909424 831.996704 1764.029297 833.480469 C 1766.149048 834.964294 1768.013062 836.15271 1769.621094 837.042969 C 1771.229248 837.933289 1772.033203 838.376953 1772.033203 838.376953 L 1768.744141 916.722656 Z M 2264.882813 908.384766 C 2264.696289 903.707703 2264.585938 898.993958 2264.550781 894.242188 C 2264.325195 863.692505 2266.034912 835.880493 2269.677734 810.800781 C 2261.44458 826.506897 2251.842041 838.073975 2240.867188 845.5 C 2230.780273 851.731934 2219.668945 852.472717 2207.535156 847.724609 C 2196.424561 843.273193 2184.509521 832.591003 2171.791016 815.675781 L 2168.722656 825.46875 C 2181.879883 842.977478 2194.377197 854.105408 2206.21875 858.853516 C 2219.375732 864.19519 2231.437988 863.305786 2242.402344 856.183594 C 2244.448975 854.996582 2246.421875 853.661499 2248.322266 852.177734 C 2254.657959 867.962036 2260.177979 886.698303 2264.882813 908.384766 Z M 1928.099609 885.726563 C 1927.949463 870.301636 1928.189209 854.444885 1928.822266 838.154297 C 1930.130005 804.496216 1932.005249 773.477417 1934.447266 745.089844 C 1928.300537 761.251709 1924.414429 777.213074 1922.792969 792.972656 C 1920.380859 816.416565 1920.892578 839.637939 1924.328125 862.636719 C 1925.481567 870.358459 1926.740234 878.055054 1928.099609 885.726563 Z M 2371.560547 816.121094 C 2371.560547 816.121094 2371.560547 813.597656 2371.560547 808.552734 C 2371.560547 803.507874 2371.012451 797.053528 2369.916016 789.189453 C 2368.81958 781.325378 2366.77417 773.016113 2363.777344 764.261719 C 2360.780518 755.507324 2356.393799 747.19812 2350.619141 739.333984 C 2344.844727 731.469971 2337.205566 725.089844 2327.703125 720.193359 C 2319.46875 715.950317 2309.531982 713.65979 2297.894531 713.316406 C 2296.884521 720.563843 2295.694092 727.690063 2294.326172 734.695313 C 2294.848145 734.19519 2295.376709 733.737793 2295.908203 733.324219 C 2298.101074 731.840332 2300.220947 731.248169 2302.267578 731.544922 C 2304.021973 732.138428 2305.774902 732.582153 2307.529297 732.878906 C 2320.394043 734.659424 2332.345459 740.447266 2343.382813 750.240234 C 2354.420166 760.033325 2363.8125 781.994385 2371.560547 816.121094 Z M 1973.009766 647.859375 C 1973.082886 647.859375 1973.119141 647.859375 1973.119141 647.859375 C 1973.119141 647.859375 1973.119141 647.785156 1973.119141 647.636719 C 1973.119141 647.488403 1973.119141 647.414063 1973.119141 647.414063 C 1973.119141 647.414063 1973.119141 647.339844 1973.119141 647.191406 C 1973.119141 647.043091 1973.119141 646.96875 1973.119141 646.96875 C 1973.119141 646.96875 1972.826904 646.59729 1972.242188 645.855469 C 1971.657471 645.113525 1970.853394 644.149902 1969.830078 642.962891 C 1969.049805 641.792114 1967.835693 639.536743 1966.197266 636.224609 C 1966.124756 637.115112 1966.049438 638.001343 1965.970703 638.884766 C 1967.331055 640.19812 1968.618042 641.557129 1969.830078 642.962891 C 1970.122437 643.556396 1970.450928 644.148682 1970.816406 644.742188 C 1971.181885 645.335693 1971.474121 645.855713 1971.693359 646.300781 C 1971.912598 646.745972 1972.095947 647.043091 1972.242188 647.191406 C 1972.388428 647.339844 1972.533447 647.488403 1972.679688 647.636719 C 1972.825806 647.785156 1972.936768 647.859375 1973.009766 647.859375 Z M 599.730469 510.310547 C 599.810608 509.578613 599.903748 508.284424 600.005859 506.527344 C 599.85968 508.307861 599.767029 509.568604 599.730469 510.310547 Z"/>
        <path id="path1" fill="#ffffff" fill-rule="evenodd" stroke="none" d="M 1418.492188 1553.251953 C 1409.227417 1553.251953 1400.139282 1548.718872 1391.052734 1542.949219 C 1371.810669 1530.173462 1353.994507 1511.215332 1339.384766 1479.070313 C 1323.527832 1444.452515 1313.372803 1402.002686 1309.453125 1352.136719 C 1308.740356 1343.482178 1308.382813 1335.240479 1308.382813 1326.998047 C 1308.382813 1299.38623 1312.125732 1274.246704 1320.677734 1251.992188 C 1322.459473 1247.458862 1324.597778 1242.925903 1326.914063 1239.628906 C 1334.218872 1229.738037 1341.879883 1222.318604 1349.541016 1216.136719 C 1351.322754 1214.900391 1353.280884 1214.076172 1355.0625 1214.076172 C 1355.953369 1214.076172 1356.667725 1214.076172 1357.558594 1214.488281 L 1358.091797 1214.488281 C 1358.804443 1214.488281 1359.51709 1214.900391 1359.695313 1216.960938 L 1359.695313 1217.373047 C 1359.695313 1219.021484 1358.804077 1219.433594 1358.269531 1220.257813 C 1352.211914 1225.615356 1346.689453 1233.859375 1340.275391 1237.15625 C 1339.384521 1237.568359 1338.85083 1239.216797 1338.316406 1240.865234 C 1331.724121 1260.646973 1327.804688 1282.077515 1327.804688 1306.392578 C 1327.804688 1310.513794 1327.982056 1314.634644 1328.160156 1319.167969 C 1332.079834 1400.354736 1350.966064 1458.052002 1381.789063 1496.378906 C 1398.002319 1516.57251 1418.3125 1529.349609 1434.347656 1530.998047 L 1435.951172 1530.998047 C 1438.623657 1530.998047 1441.653198 1530.585938 1444.503906 1529.761719 C 1446.641968 1528.9375 1448.423828 1526.875122 1450.027344 1523.166016 C 1456.619629 1507.093628 1459.113281 1488.136963 1459.113281 1467.943359 C 1459.113281 1463.822144 1458.936035 1459.289185 1458.757813 1455.167969 C 1456.44165 1402.005127 1446.463257 1355.846558 1433.457031 1312.574219 C 1416.887451 1257.350708 1395.328491 1214.076538 1371.097656 1177.810547 C 1356.131592 1155.55603 1340.454346 1136.186035 1325.488281 1114.755859 C 1316.223633 1101.980225 1307.314453 1087.969238 1299.296875 1071.072266 C 1296.62439 1065.302612 1294.308594 1059.531494 1292.705078 1051.701172 C 1291.814209 1047.580078 1291.457031 1043.459106 1291.457031 1039.337891 C 1291.457031 1033.568237 1292.349243 1027.79895 1294.130859 1022.029297 C 1294.843628 1020.380798 1295.377197 1018.732483 1296.089844 1017.496094 C 1306.95813 1000.599182 1318.539795 985.349609 1331.902344 984.9375 L 1333.326172 984.9375 C 1340.227783 984.9375 1346.426147 987.786194 1352.445313 993.074219 C 1352.47168 993.134583 1352.509399 993.181641 1352.568359 993.181641 C 1352.527344 993.145386 1352.486328 993.110229 1352.445313 993.074219 C 1352.391968 992.952087 1352.390625 992.769531 1352.390625 992.769531 L 1343.839844 938.369141 C 1343.305298 934.660095 1342.592651 931.363281 1340.632813 931.363281 C 1340.276489 930.951172 1339.919922 930.127014 1339.919922 929.302734 C 1339.919922 928.890625 1340.097168 928.066406 1340.275391 927.654297 C 1340.809814 926.005798 1341.522217 924.357422 1342.056641 923.121094 C 1345.441895 916.527161 1349.005493 909.519714 1352.390625 902.513672 C 1353.281494 900.865234 1353.994385 900.041016 1354.707031 900.041016 C 1355.776123 900.041016 1356.667725 902.10144 1357.558594 906.222656 C 1359.874756 916.937744 1361.833984 928.066101 1363.4375 939.605469 C 1368.069824 972.986633 1373.236084 1005.956726 1378.9375 1038.513672 L 1381.611328 1052.113281 C 1385.709229 1066.949707 1388.915894 1083.022949 1391.410156 1099.919922 C 1391.588379 1100.332031 1391.587402 1101.15625 1391.765625 1101.980469 L 1392.300781 1104.453125 C 1392.122681 1104.453125 1391.766113 1104.865234 1391.587891 1104.865234 C 1391.409668 1105.689453 1390.875244 1106.513672 1389.984375 1107.337891 C 1385.352051 1111.871216 1380.542114 1116.404175 1376.087891 1121.761719 C 1375.197021 1122.585938 1374.661499 1122.998047 1374.126953 1122.998047 C 1373.057983 1122.998047 1372.524658 1120.9375 1371.990234 1117.640625 C 1368.783203 1095.79834 1364.149048 1076.016113 1358.269531 1057.882813 C 1347.935791 1027.385986 1334.218506 1010.490295 1317.470703 1006.78125 L 1316.935547 1006.78125 C 1313.19397 1006.78125 1310.878906 1012.550537 1310.878906 1021.205078 C 1310.878906 1023.677795 1311.055786 1026.150391 1311.412109 1029.035156 C 1312.481079 1037.689697 1315.153198 1043.87085 1318.003906 1050.052734 C 1326.199585 1066.949707 1335.286011 1080.962524 1344.550781 1094.150391 C 1360.051392 1115.992676 1376.265991 1135.77478 1391.410156 1159.265625 C 1418.313477 1200.064941 1441.474487 1249.520386 1458.400391 1313.398438 C 1467.308838 1347.192017 1474.258301 1382.634033 1477.287109 1422.197266 C 1477.821655 1431.263916 1478.355469 1439.917725 1478.355469 1448.984375 C 1478.355469 1455.166138 1478.177124 1461.761597 1477.642578 1468.355469 C 1476.039063 1489.7854 1471.40625 1507.505615 1463.388672 1518.632813 C 1451.629639 1534.7052 1439.336548 1549.130737 1425.439453 1552.427734 C 1423.123291 1552.839844 1420.80835 1553.251953 1418.492188 1553.251953 Z M 978.773438 1535.119141 C 978.238892 1535.119141 977.882813 1534.294922 977.882813 1532.234375 C 978.060974 1530.585938 978.060547 1528.935547 978.060547 1527.287109 C 978.060547 1521.929565 977.348938 1516.984497 976.814453 1512.039063 C 970.756714 1460.524536 963.4505 1409.832886 956.501953 1359.142578 C 955.967468 1355.845581 955.255432 1354.609375 953.830078 1353.785156 C 951.692078 1352.960938 949.554077 1351.3125 947.416016 1350.076172 C 946.703369 1349.664063 945.990723 1348.839844 945.8125 1347.191406 L 945.8125 1346.779297 C 945.8125 1345.130859 946.703796 1345.130859 947.238281 1344.306641 C 947.238281 1344.306641 947.416016 1344.306641 947.416016 1343.894531 C 949.375854 1341.421875 952.404968 1341.421997 952.939453 1336.888672 C 952.939453 1336.064453 953.117188 1335.652344 953.117188 1334.828125 C 953.117188 1331.119019 951.870422 1326.58606 951.335938 1322.876953 C 937.260681 1220.672119 923.362366 1118.4646 910.890625 1015.435547 C 909.821594 1005.956787 907.683777 996.890747 903.585938 991.533203 C 902.338745 989.884766 901.804016 986.998108 901.269531 983.701172 C 901.09137 983.289063 901.091797 982.876953 901.091797 982.464844 C 901.091797 980.816345 901.805359 980.404358 902.339844 979.580078 C 904.477905 976.695251 905.369141 975.871155 905.369141 973.398438 C 905.369141 971.749939 905.011536 969.689514 904.298828 965.980469 C 904.298828 965.156189 904.121521 964.332031 903.943359 963.507813 C 903.230713 960.210815 902.875 958.562561 902.875 956.914063 C 902.875 954.853455 903.764343 954.029358 905.902344 951.96875 C 909.64386 947.847534 913.564697 944.138794 917.484375 940.017578 C 918.01886 939.193359 918.553345 938.78125 919.087891 938.78125 C 919.800537 938.78125 920.512329 940.017517 921.046875 942.902344 C 923.71936 956.09021 925.323792 970.101196 927.105469 983.701172 C 927.639954 989.058716 928.707886 994.005737 929.955078 998.539063 C 973.605713 1160.088745 1021.891052 1314.635864 1070.886719 1468.355469 C 1074.271851 1479.482666 1077.833984 1490.609131 1081.041016 1502.148438 C 1081.575562 1503.796875 1081.753906 1505.033203 1081.753906 1506.269531 C 1081.753906 1507.917969 1081.219849 1509.154297 1079.972656 1510.390625 C 1075.340332 1514.511841 1070.885864 1519.456909 1066.431641 1523.990234 C 1066.075317 1524.402344 1065.54187 1524.814453 1065.185547 1524.814453 C 1064.829224 1524.814453 1064.293823 1524.402344 1063.9375 1522.753906 C 1054.672729 1489.372437 1043.983276 1458.463501 1034.005859 1426.318359 C 1026.87915 1403.239868 1019.573486 1380.572632 1012.625 1357.90625 C 1011.377808 1353.785034 1009.952454 1352.548828 1007.814453 1352.548828 C 997.837036 1352.548828 988.037964 1354.197266 978.060547 1354.609375 C 976.813416 1355.021484 976.279297 1355.845703 976.279297 1357.082031 C 976.279297 1357.90625 976.636292 1359.142578 976.814453 1360.378906 C 982.159485 1398.705811 987.503967 1437.446533 992.314453 1476.185547 C 993.739807 1487.312744 995.163879 1498.0271 996.054688 1509.566406 C 996.054688 1510.390625 996.234375 1511.626953 996.234375 1512.451172 C 996.234375 1516.160278 995.342651 1518.632813 993.382813 1520.693359 C 988.928589 1524.814575 984.475708 1529.761597 980.021484 1534.294922 C 979.487 1534.707031 979.129761 1535.119141 978.773438 1535.119141 Z M 681.054688 1529.761719 C 678.738525 1529.761719 676.243896 1528.523438 673.927734 1527.699219 C 660.386963 1522.753784 646.669617 1516.572388 633.128906 1512.039063 C 621.547974 1507.917847 609.787964 1504.621094 598.207031 1501.736328 C 591.971191 1500.087891 585.913208 1500.087891 579.855469 1498.851563 C 577.717468 1498.439453 575.579407 1498.027344 573.441406 1498.027344 C 570.056213 1498.027344 567.027344 1498.851563 563.820313 1499.675781 C 562.751343 1500.087891 561.861511 1500.5 560.970703 1501.736328 C 555.625671 1509.56665 549.744812 1515.335815 543.865234 1520.693359 C 543.33075 1521.105469 542.975464 1521.517578 542.619141 1521.929688 L 542.261719 1521.929688 C 541.549072 1521.929688 540.83728 1521.105469 540.302734 1519.869141 C 539.946411 1519.044922 539.947266 1518.220703 539.947266 1517.808594 C 539.947266 1516.572266 539.946838 1515.748047 540.125 1514.923828 C 540.837708 1511.626831 541.727417 1509.566406 542.974609 1507.505859 C 543.687256 1506.269531 544.400208 1505.445313 545.291016 1504.621094 C 549.567017 1501.324097 550.636047 1492.258057 551.705078 1483.603516 C 552.952209 1472.064209 553.486328 1460.111572 553.486328 1448.160156 C 553.486328 1441.566284 553.309509 1435.38501 552.953125 1428.791016 C 551.527832 1400.35498 548.854797 1372.330566 545.113281 1344.306641 C 542.618958 1325.349243 539.769104 1306.802979 536.740234 1288.669922 C 532.998718 1266.415527 528.721802 1244.574707 524.267578 1222.732422 C 517.497253 1190.175293 510.547943 1158.027832 502.886719 1125.882813 C 494.334686 1089.616577 484.893402 1053.762207 474.916016 1019.144531 C 470.715149 1004.175049 466.584747 989.206177 462.251953 974.556641 C 461.653564 975.68103 460.703247 976.307617 460.126953 977.107422 C 454.247406 983.701355 448.190948 990.296753 441.955078 995.242188 C 440.707916 996.478516 440.171875 997.714783 440.171875 999.775391 C 440.171875 1000.599609 440.17337 1001.423767 440.351563 1002.660156 C 446.231079 1062.417236 455.317535 1120.114136 465.294922 1176.574219 C 481.508026 1268.064453 499.145874 1358.318481 517.140625 1447.748047 C 518.031494 1452.281372 519.101807 1454.34375 521.417969 1454.34375 L 523.376953 1454.34375 C 528.365662 1454.34375 533.353516 1455.579956 538.164063 1459.289063 C 540.836609 1460.9375 543.15387 1463.822144 544.935547 1468.355469 C 545.470032 1469.591797 545.648438 1470.416016 545.648438 1471.652344 C 545.648438 1472.476563 545.291199 1473.300781 544.400391 1474.125 L 529.96875 1488.960938 C 529.790527 1489.373047 529.434448 1489.785156 529.078125 1489.785156 C 528.721802 1489.785156 528.36615 1489.373047 528.009766 1488.548828 C 524.090088 1479.070068 518.922241 1477.421875 513.933594 1476.185547 C 511.973724 1475.361328 510.014099 1474.537109 508.232422 1474.537109 C 506.450745 1474.537109 504.847656 1475.361328 503.244141 1477.421875 C 503.065979 1477.421875 502.709412 1477.833984 502.53125 1477.833984 C 501.105896 1475.361328 499.501495 1474.537109 498.076172 1474.537109 C 495.759979 1474.537109 493.622833 1476.185547 491.306641 1476.185547 L 490.951172 1476.185547 C 488.972168 1476.185547 487.105438 1476.962158 485.261719 1477.695313 C 485.682678 1479.77002 485.960938 1481.180664 485.960938 1482.367188 C 485.960938 1484.839844 485.070496 1485.664063 482.576172 1487.724609 C 478.30014 1491.845825 474.024506 1495.966675 469.570313 1500.087891 C 469.213989 1500.5 468.858276 1500.5 468.501953 1500.5 C 468.163147 1500.5 467.663239 1500.124023 467.308594 1498.316406 C 466.335266 1499.3302 465.364899 1500.33667 464.404297 1501.324219 C 463.69165 1501.736328 462.978302 1502.148438 462.265625 1502.148438 C 461.018463 1502.148438 460.304688 1500.5 460.304688 1498.027344 C 460.304688 1497.203125 460.483948 1496.378906 460.662109 1495.142578 C 461.552948 1491.845703 462.978973 1489.785156 464.404297 1488.136719 C 464.648376 1487.84436 464.892609 1487.554932 465.136719 1487.263672 C 451.249969 1416.669312 437.52301 1346.055908 423.958984 1275.070313 C 422.355499 1266.415771 420.751526 1257.761963 419.326172 1249.107422 C 418.791687 1246.222656 418.079193 1244.986328 416.832031 1244.986328 L 381.554688 1243.75 L 381.199219 1243.75 C 380.130219 1243.75 379.951172 1244.162109 379.951172 1245.398438 C 379.951172 1246.222656 380.308167 1247.458984 380.486328 1248.695313 C 388.147552 1295.264648 395.807983 1341.834961 403.291016 1388.404297 C 404.003693 1392.937622 404.539063 1395.410156 404.539063 1397.470703 C 404.539063 1400.355591 403.469818 1401.179688 400.619141 1403.652344 C 396.343109 1407.77356 392.246277 1411.4823 388.148438 1415.191406 C 387.792084 1415.603516 387.434479 1416.015625 387.078125 1416.015625 C 386.721802 1416.015625 386.366119 1415.191406 386.009766 1413.542969 C 379.417572 1372.331055 372.647308 1331.530273 365.876953 1290.318359 C 355.18689 1224.379395 344.318298 1158.028809 333.09375 1092.501953 C 329.530396 1071.895996 325.789673 1051.70166 321.513672 1031.507813 C 320.979156 1029.035156 320.623047 1027.386719 320.623047 1026.150391 C 320.623047 1024.089844 321.513245 1023.265625 323.294922 1021.617188 C 327.927277 1017.495972 332.559052 1013.375122 337.191406 1008.841797 C 337.725922 1008.429688 338.081604 1008.017578 338.259766 1008.017578 C 338.794281 1008.017578 339.151459 1008.841736 339.507813 1011.314453 C 341.645813 1022.853821 344.139343 1033.980225 346.277344 1045.519531 C 355.363892 1095.385742 363.559692 1146.077148 371.933594 1196.355469 C 372.64624 1201.300903 373.537323 1202.949219 375.853516 1202.949219 C 386.721741 1203.361328 397.590759 1204.185547 408.458984 1205.009766 L 410.953125 1205.009766 C 407.389771 1184.403809 403.826141 1165.035645 400.619141 1145.666016 C 394.38327 1108.16333 388.325714 1070.246826 382.089844 1032.744141 C 379.951843 1019.968445 377.457245 1007.605774 374.962891 995.242188 C 374.606567 993.593689 374.429688 992.357483 374.429688 991.533203 C 374.429688 989.472595 374.963318 988.234436 376.388672 986.998047 C 381.199188 983.289001 385.830536 978.755981 390.462891 974.222656 C 391.175568 973.398438 391.889771 972.986328 392.246094 972.986328 C 392.958771 972.986328 393.492188 973.810486 393.492188 977.519531 C 393.492188 978.343811 393.671448 979.167969 393.849609 979.992188 C 395.637451 988.676575 397.311951 997.464844 398.912109 1006.324219 C 403.40036 1001.556641 407.885498 997.149048 412.201172 992.357422 C 413.09201 991.533142 413.982208 991.121094 414.873047 991.121094 C 415.229401 991.121094 415.764313 991.533203 416.298828 991.533203 C 417.367828 991.945313 418.257172 992.357422 419.326172 992.357422 C 421.820526 992.357422 424.316193 990.709045 426.810547 987.824219 C 429.839386 984.527222 433.22464 981.228577 436.431641 977.931641 C 436.966156 977.107361 437.500214 976.695313 438.212891 976.695313 C 438.747406 976.695313 439.281891 977.107361 439.816406 977.931641 C 440.885406 979.167969 441.419922 979.992126 441.419922 981.228516 C 441.419922 982.052734 441.064209 983.289001 440.351563 985.349609 C 446.943756 982.464783 453.178192 977.519653 459.414063 972.162109 C 459.879547 971.892944 460.497437 971.098328 461.068359 970.578125 C 458.976135 963.596802 456.831116 956.694641 454.603516 949.908203 C 452.821838 944.13855 450.684021 939.193542 448.902344 933.423828 C 448.189667 931.36322 447.65625 930.127014 447.65625 928.890625 C 447.65625 927.654297 448.190735 926.830078 449.259766 925.59375 C 454.070282 920.236206 458.880859 915.289185 463.691406 910.34375 C 464.047729 909.93158 464.403412 909.519531 464.759766 909.519531 C 465.29425 909.519531 465.651489 909.933533 466.007813 911.582031 C 467.78949 920.236572 470.995911 926.417725 473.490234 934.248047 C 477.409943 947.023743 481.328796 960.210571 485.070313 973.810547 C 490.593506 992.768066 495.760437 1012.138184 501.105469 1031.095703 C 506.985016 1052.525879 512.508484 1073.956543 517.853516 1095.386719 C 525.336548 1126.70752 532.462463 1158.440918 539.054688 1190.585938 C 544.221497 1214.901001 549.032532 1239.216187 553.308594 1264.355469 C 557.584595 1288.67041 561.682495 1313.397949 564.533203 1338.537109 C 568.274719 1369.858032 571.304688 1401.179077 571.304688 1432.5 L 571.304688 1437.445313 C 571.126465 1451.457397 570.235229 1464.64624 568.275391 1477.009766 C 568.097229 1477.833984 567.917969 1478.658203 567.917969 1479.894531 C 567.917969 1480.306641 568.097229 1481.130859 568.275391 1481.955078 C 571.482422 1480.71875 574.866394 1479.070313 578.429688 1477.833984 C 581.81488 1476.597656 585.380005 1476.185547 588.943359 1476.185547 C 594.466553 1476.185547 600.167786 1477.421875 605.869141 1478.246094 C 611.036011 1479.482422 616.202271 1481.130859 621.369141 1481.955078 C 632.771912 1484.427734 644.174988 1488.960815 655.755859 1492.669922 C 659.497375 1494.318359 663.417358 1495.966797 667.693359 1497.615234 C 667.158875 1493.081909 665.910828 1490.609375 664.841797 1488.136719 C 656.646118 1465.470215 648.628174 1442.803223 641.679688 1418.076172 C 637.225464 1401.591553 633.305542 1384.693604 629.742188 1366.972656 C 627.426025 1355.02124 625.287964 1343.070557 623.328125 1331.119141 C 620.65564 1314.634521 618.518921 1297.324463 617.984375 1280.015625 L 617.984375 1275.482422 C 617.984375 1268.888428 618.874573 1263.53125 622.259766 1261.058594 C 626.535767 1257.761719 630.454834 1252.816528 634.552734 1248.283203 C 634.730896 1247.871094 635.088989 1247.871094 635.445313 1247.871094 L 635.800781 1247.871094 C 636.335327 1249.107422 636.335938 1250.34375 636.335938 1251.580078 L 636.335938 1253.228516 C 636.157776 1256.113281 635.978516 1258.998047 635.978516 1261.882813 C 635.978516 1270.125244 636.868958 1278.779053 637.759766 1287.021484 C 640.432312 1312.160645 644.886719 1336.476074 649.697266 1359.966797 C 655.220459 1385.930176 662.169983 1410.657715 670.1875 1433.736328 C 675.532532 1448.984741 680.876709 1464.646118 686.578125 1479.482422 C 690.141479 1489.373291 694.239197 1498.439209 698.693359 1505.857422 C 699.76239 1507.505859 700.296875 1508.742188 700.296875 1509.978516 C 700.296875 1511.214844 699.761963 1512.039063 698.871094 1513.275391 C 694.060608 1518.632935 689.430115 1523.990112 684.441406 1528.523438 C 683.372437 1529.347656 682.123718 1529.761719 681.054688 1529.761719 Z M 943.673828 1522.753906 C 942.248474 1522.753906 941.180359 1521.105469 940.111328 1519.044922 C 936.904358 1513.275269 934.230652 1506.269775 931.736328 1499.263672 C 925.500427 1481.954834 919.443542 1464.644897 912.138672 1449.808594 C 910.000671 1445.275269 907.685303 1441.154419 905.369141 1437.033203 C 895.92627 1419.312256 885.413574 1410.246094 874.367188 1410.246094 C 869.378479 1410.246094 864.211792 1411.894409 859.044922 1415.603516 C 853.521729 1419.724731 847.642761 1423.021362 841.941406 1426.318359 C 841.228699 1426.730469 840.515808 1427.142578 839.625 1427.554688 C 839.446777 1427.554688 838.912537 1426.730469 838.734375 1426.318359 L 838.734375 1425.494141 C 838.734375 1425.082031 838.911682 1424.257813 839.089844 1423.845703 C 839.62439 1423.021484 840.336609 1422.197266 840.871094 1421.373047 C 853.164673 1406.948853 866.350281 1399.531494 879.712891 1392.525391 C 883.632568 1390.464844 887.194458 1389.640625 890.757813 1389.640625 C 904.298523 1389.640625 915.880249 1403.239868 926.570313 1424.257813 C 930.846313 1432.912354 934.944641 1442.392334 939.220703 1451.871094 C 931.559509 1388.405029 921.759949 1326.585205 911.248047 1265.591797 C 911.069885 1278.779541 910.713989 1291.968384 909.466797 1305.15625 C 907.863281 1319.992554 904.655151 1331.531128 897.884766 1336.888672 C 894.321411 1339.773438 890.75824 1343.894409 887.373047 1347.603516 C 885.413208 1349.664063 883.631714 1350.488281 881.671875 1350.488281 C 879.712036 1350.488281 877.752808 1349.664063 875.792969 1347.603516 C 870.982422 1342.658081 866.884094 1335.240479 863.142578 1326.585938 C 852.452515 1303.095337 844.790771 1274.658936 837.664063 1245.398438 C 825.548706 1196.356445 816.106934 1144.428711 806.664063 1092.501953 C 802.031738 1066.950562 797.397949 1041.811157 791.162109 1017.908203 C 788.667725 1008.429443 785.996948 999.363525 782.433594 991.945313 C 781.00824 988.648376 779.582031 986.998047 777.978516 986.998047 C 776.909546 986.998047 776.018188 987.410156 774.949219 989.058594 C 774.592834 989.882874 773.880615 991.121094 773.167969 991.121094 C 772.811584 991.121094 772.455933 990.707092 772.099609 989.058594 C 771.921448 988.234375 771.919922 987.822327 771.919922 986.998047 C 771.919922 984.9375 772.632568 982.877014 773.523438 981.640625 C 774.236084 980.816406 774.949463 980.404358 775.662109 979.580078 C 779.403625 975.458923 783.322937 971.750122 787.064453 967.628906 C 788.84613 965.568298 790.451172 964.744141 792.054688 964.744141 C 794.549011 964.744141 796.863525 967.216675 799.179688 971.337891 C 802.56488 977.931824 805.238464 986.175537 807.554688 995.242188 C 814.146851 1019.145142 818.957031 1045.108643 823.767578 1071.072266 C 833.566772 1124.647461 843.188416 1178.223633 855.660156 1229.326172 C 861.896057 1254.877686 868.843567 1279.60498 877.751953 1301.035156 C 880.958923 1309.277588 884.523193 1316.283081 888.621094 1322.464844 C 889.33374 1323.701172 889.867798 1324.113281 890.402344 1324.113281 C 891.11499 1324.113281 891.470276 1322.464844 891.648438 1319.580078 C 892.717468 1308.452881 893.253906 1297.736572 893.253906 1286.609375 C 893.253906 1277.954834 892.897339 1269.301025 892.541016 1260.646484 C 888.977661 1187.70166 879.177856 1118.052246 868.666016 1048.816406 C 867.596985 1043.046753 866.349121 1037.689575 864.923828 1031.919922 C 864.032959 1029.035156 863.142578 1025.738281 863.142578 1021.617188 C 863.142578 1020.792908 863.142151 1019.96875 863.320313 1018.732422 L 863.320313 1017.908203 C 863.320313 1015.435486 862.429443 1011.726624 861.716797 1009.253906 C 861.538635 1008.017517 861.361328 1007.19342 861.361328 1006.369141 C 861.361328 1004.720703 861.896301 1003.896484 862.787109 1002.660156 C 867.419495 998.126831 871.871948 994.004028 876.326172 989.058594 C 876.860657 988.234375 877.395142 987.824219 877.929688 987.824219 C 878.642334 987.824219 879.178345 989.060486 879.712891 991.945313 C 884.167053 1020.381592 890.046631 1046.75708 895.748047 1073.957031 C 916.77179 1174.10144 935.477722 1276.720703 950.265625 1383.046875 C 954.719788 1413.955688 958.997437 1444.864624 961.669922 1476.597656 C 962.204468 1482.36731 962.560547 1487.724487 962.560547 1493.494141 L 962.560547 1497.203125 C 962.382385 1502.14856 961.668823 1505.445313 959.708984 1507.09375 C 954.898499 1512.039185 950.267151 1516.572144 945.634766 1521.517578 C 944.922119 1522.341797 944.208374 1522.753906 943.673828 1522.753906 Z M 1139.837891 1521.105469 C 1139.125122 1521.105469 1138.411865 1520.28125 1137.699219 1518.632813 C 1126.830933 1493.081665 1117.743774 1464.64502 1109.013672 1434.972656 C 1073.201904 1313.810425 1040.063843 1188.936035 1012.982422 1055.410156 C 1011.913391 1050.052612 1010.486328 1045.107544 1010.486328 1039.337891 C 1010.486328 1037.689453 1010.665527 1036.041016 1010.84375 1034.392578 L 1010.84375 1033.568359 C 1010.84375 1031.507813 1009.774719 1032.332031 1009.240234 1031.919922 C 997.659302 1028.623047 986.255798 1023.265747 975.03125 1016.259766 C 973.071411 1015.023376 971.111572 1013.787109 968.617188 1012.138672 C 973.249573 1026.562866 977.526245 1039.749634 981.980469 1052.525391 C 982.336792 1053.761719 982.693359 1054.585938 982.693359 1054.998047 C 982.693359 1055.822266 982.337708 1056.234375 981.625 1057.058594 C 976.636353 1062.41626 971.646912 1067.363159 966.658203 1072.720703 C 966.30188 1073.132813 965.94574 1073.132813 965.767578 1073.132813 C 964.698547 1073.132813 964.163879 1071.072266 963.451172 1069.011719 C 959.709656 1057.472412 955.968506 1045.931885 952.048828 1034.392578 C 946.347473 1018.319885 939.755188 1004.30896 932.806641 990.708984 C 930.490479 986.175659 929.421875 983.701233 929.421875 981.640625 C 929.421875 979.580017 931.024719 978.343811 933.697266 975.458984 C 937.082458 972.161987 940.466797 968.865356 943.673828 965.15625 C 944.921021 963.507813 946.168884 962.683594 947.416016 962.683594 C 948.306885 962.683594 949.376282 963.507813 950.445313 964.332031 C 960.244507 972.162292 970.221802 980.406067 980.199219 987.824219 C 999.619446 1002.248413 1019.395874 1010.490112 1039.707031 1015.023438 C 1055.742065 1018.732544 1071.776978 1021.205078 1087.990234 1021.205078 L 1091.732422 1021.205078 C 1097.077515 1020.792908 1102.600342 1019.96875 1107.945313 1018.732422 C 1111.152344 1017.496033 1114.180054 1014.199341 1117.208984 1011.314453 C 1118.623901 1009.950745 1119.962036 1008.407715 1121.324219 1006.921875 C 1120.245972 1005.380127 1119.171753 1003.823303 1118.101563 1002.248047 C 1115.607178 998.95105 1113.289917 994.8302 1111.330078 989.884766 C 1110.439209 987.412048 1110.082031 985.76178 1110.082031 984.113281 C 1110.082031 982.052673 1110.794922 980.404358 1112.398438 978.755859 C 1117.030762 973.810425 1121.841797 968.865356 1126.652344 963.919922 C 1127.899536 962.683533 1129.147461 962.271484 1130.394531 962.271484 C 1132.17627 962.271484 1133.957031 963.095642 1135.560547 963.919922 C 1153.199219 970.513855 1171.194946 972.986328 1189.011719 972.986328 L 1196.494141 972.986328 C 1208.431396 972.162048 1220.190552 969.689575 1231.771484 963.919922 L 1232.306641 963.919922 C 1233.019287 963.919922 1233.730713 963.095703 1234.443359 963.095703 C 1234.977905 963.095703 1235.335449 963.507813 1235.513672 964.744141 C 1235.513672 965.15625 1235.691406 965.568298 1235.691406 965.980469 C 1235.691406 968.453186 1233.9104 968.453125 1233.019531 969.277344 C 1230.88147 972.16217 1228.564209 973.810486 1226.248047 976.695313 C 1218.586792 985.761963 1210.213745 987.412048 1201.839844 989.884766 C 1192.040649 992.769592 1182.240112 994.005859 1172.619141 994.005859 C 1163.17627 994.005859 1153.911621 992.769592 1144.46875 991.533203 C 1144.290527 991.533203 1143.93396 991.121094 1143.755859 991.121094 C 1143.221313 991.121094 1142.686768 991.533142 1142.152344 992.357422 C 1144.468506 995.242249 1146.7854 998.539001 1149.101563 1001.423828 C 1168.878174 1026.563232 1188.655029 1051.290527 1210.035156 1069.011719 C 1213.063965 1071.484375 1216.092285 1073.132813 1219.121094 1074.369141 C 1220.368286 1074.78125 1221.437256 1075.605469 1222.328125 1076.841797 C 1223.040771 1077.666016 1223.398438 1078.902344 1223.398438 1079.726563 C 1223.398438 1080.550781 1223.040771 1081.375 1222.328125 1082.199219 C 1217.161255 1087.556763 1212.172729 1092.91394 1207.005859 1097.859375 C 1206.471313 1098.271484 1206.114624 1098.683594 1205.580078 1098.683594 C 1204.511108 1098.683594 1203.621704 1097.447266 1202.552734 1096.623047 C 1200.05835 1094.974609 1197.206665 1093.738281 1194.177734 1093.738281 C 1186.516602 1093.738281 1178.143921 1100.743774 1172.798828 1116.816406 C 1165.494019 1139.070801 1162.107422 1162.973877 1162.107422 1188.9375 C 1162.107422 1196.767822 1162.2854 1205.009521 1162.998047 1213.251953 C 1165.670532 1249.517944 1172.975952 1281.253174 1182.0625 1310.925781 C 1201.482788 1375.628052 1225.535522 1429.616455 1255.111328 1469.179688 C 1263.66333 1480.718994 1272.749146 1488.960815 1282.726563 1491.845703 L 1283.796875 1491.845703 C 1286.291138 1491.845703 1287.894897 1489.373169 1289.320313 1483.603516 C 1292.170898 1470.415649 1293.240234 1456.814819 1293.240234 1442.802734 C 1293.240234 1437.44519 1293.060913 1432.500122 1292.882813 1427.142578 C 1291.279297 1387.991455 1284.153198 1353.785645 1274.175781 1322.464844 C 1266.336426 1297.737915 1257.784668 1273.834473 1248.341797 1251.992188 C 1245.669312 1245.398315 1242.817261 1238.80481 1239.253906 1233.447266 C 1238.719482 1232.210938 1238.363281 1231.386719 1238.363281 1230.974609 C 1238.363281 1230.150391 1238.720947 1229.326172 1239.433594 1228.501953 C 1244.422241 1223.556519 1249.232422 1218.197388 1254.042969 1213.251953 C 1254.399292 1212.839844 1254.932739 1212.839844 1255.289063 1212.839844 C 1255.645386 1212.839844 1256.180298 1213.251953 1256.714844 1214.076172 C 1257.783813 1215.724609 1258.853394 1217.373047 1259.744141 1219.433594 C 1275.422974 1253.638916 1289.319336 1291.143677 1300.1875 1334.416016 C 1306.779663 1360.791382 1310.343872 1389.640137 1311.056641 1420.136719 L 1311.056641 1426.730469 C 1311.056641 1438.269775 1310.34375 1449.398193 1308.740234 1460.113281 C 1306.958618 1471.652588 1304.106934 1481.130737 1299.474609 1487.3125 C 1292.3479 1497.203369 1284.687866 1505.8573 1276.492188 1510.390625 C 1273.819702 1512.039063 1271.324463 1512.451172 1268.830078 1512.451172 C 1261.703369 1512.451172 1254.932495 1507.093872 1248.162109 1500.912109 C 1234.443115 1486.900024 1222.150757 1467.529541 1210.748047 1445.275391 C 1189.546143 1404.887939 1171.19397 1358.319214 1157.296875 1303.095703 C 1151.417358 1279.192871 1146.786011 1254.053467 1144.826172 1226.441406 C 1144.291626 1219.435303 1144.113281 1212.427979 1144.113281 1205.421875 C 1144.113281 1163.38623 1152.843262 1122.586426 1171.550781 1101.568359 C 1176.005005 1096.622925 1180.637573 1092.089966 1185.091797 1087.556641 C 1185.804443 1086.732422 1186.695557 1086.320313 1187.408203 1084.259766 C 1180.459717 1078.077881 1173.689819 1071.070557 1167.097656 1063.652344 C 1152.387573 1047.001465 1137.81543 1030.032227 1123.863281 1010.511719 C 1122.394531 1013.199585 1120.694458 1015.348328 1118.992188 1017.496094 C 1104.560669 1036.453613 1089.238281 1042.222656 1073.203125 1042.222656 L 1069.996094 1042.222656 C 1058.058838 1041.398438 1046.12085 1040.574219 1034.183594 1038.101563 C 1033.649048 1038.101563 1032.93689 1037.689453 1032.402344 1037.689453 C 1032.046021 1037.689453 1031.511108 1038.101563 1030.976563 1038.513672 C 1032.045532 1043.459106 1032.93689 1047.992065 1034.005859 1052.9375 C 1062.334595 1189.760254 1096.898315 1318.343506 1134.669922 1442.802734 C 1140.727539 1462.584229 1147.497437 1481.542725 1154.980469 1498.851563 C 1155.871338 1500.912109 1156.40625 1502.560547 1156.40625 1503.384766 C 1156.40625 1504.621094 1155.693237 1505.445313 1154.089844 1507.09375 C 1149.991943 1511.627075 1145.717407 1515.747925 1141.441406 1520.28125 C 1140.90686 1521.105469 1140.372314 1521.105469 1139.837891 1521.105469 Z M 96.130859 1503.796875 C 95.418182 1503.796875 94.706375 1502.560547 94.171875 1499.675781 C 80.45298 1435.385132 66.911392 1370.683228 53.548828 1305.568359 C 44.462284 1260.647339 35.197643 1216.137695 23.794922 1173.689453 C 18.27173 1153.083496 11.857601 1133.713379 4.552734 1115.992188 C 1.34572 1108.161865 -0.257813 1102.3927 -0.257813 1095.798828 C -0.257813 1090.853271 0.633908 1085.084229 2.59375 1077.666016 C 7.938775 1056.647949 13.816643 1036.453735 17.736328 1013.375 C 19.874338 1001.423523 21.478083 988.64679 21.65625 975.458984 C 21.65625 971.749878 22.369583 969.689453 23.794922 968.041016 C 28.427277 963.50769 33.059052 958.974731 37.691406 954.029297 C 38.047741 953.617188 38.582684 953.205078 39.117188 953.205078 C 39.295353 953.205078 39.651474 953.205017 40.007813 954.029297 C 40.185978 954.853516 40.365234 955.265564 40.365234 956.089844 C 40.365234 956.914063 40.008247 957.73822 39.830078 958.974609 C 38.93924 963.095764 39.295788 967.628723 38.939453 973.810547 C 42.146469 970.513611 44.819241 967.628967 47.669922 964.744141 C 48.382591 963.919922 49.450962 963.507874 50.341797 963.095703 L 50.519531 963.095703 C 50.875866 963.095703 51.053822 963.507813 51.410156 964.332031 L 51.410156 965.15625 C 51.410156 965.98053 51.233288 966.392578 50.876953 966.804688 C 48.917114 968.865295 48.203125 972.161987 48.203125 975.458984 C 48.203125 978.343811 48.559681 981.228455 48.916016 983.701172 C 50.163189 995.652649 52.480698 1006.368835 54.796875 1017.496094 C 76.176971 1122.174316 99.515991 1224.792603 127.488281 1321.640625 C 138.891006 1361.204102 151.18541 1398.706299 166.507813 1430.851563 C 169.893005 1437.857666 173.455978 1445.275269 177.910156 1451.457031 C 177.553833 1439.505615 176.483932 1428.79126 175.058594 1418.488281 C 170.426239 1380.573242 163.300095 1344.307495 156.351563 1308.041016 C 146.552353 1258.174561 136.753403 1208.307739 124.103516 1161.738281 C 114.660637 1126.296021 104.326324 1092.088623 92.210938 1060.355469 C 88.647583 1051.288818 84.906441 1042.2229 80.808594 1034.804688 C 78.848747 1031.095703 76.710709 1028.210938 74.394531 1027.386719 C 73.681862 1027.386719 72.96875 1026.974609 72.96875 1025.326172 L 72.96875 1024.914063 C 72.96875 1023.677734 73.680779 1023.265625 74.037109 1022.441406 L 89.003906 1007.605469 C 89.538406 1007.193359 89.895187 1006.78125 90.429688 1006.78125 C 91.498695 1006.78125 92.568146 1007.605469 93.458984 1008.841797 C 96.84417 1012.138794 99.516937 1017.495972 102.189453 1023.265625 C 111.454163 1043.871582 119.292351 1067.362671 126.775391 1091.265625 C 143.344971 1144.016846 156.530441 1201.30127 168.111328 1260.234375 C 176.128845 1301.03418 184.324677 1341.422852 190.560547 1383.458984 C 193.054886 1400.355835 195.013885 1417.251587 195.726563 1434.972656 C 195.904724 1437.033203 195.904297 1439.505859 195.904297 1441.566406 C 195.904297 1445.275513 195.72699 1448.574097 195.548828 1452.283203 C 195.014313 1458.877075 193.410797 1463.822144 190.738281 1466.707031 C 185.92775 1471.240356 181.294907 1476.185425 176.484375 1481.130859 C 175.237198 1482.367188 173.989365 1483.191406 172.742188 1483.191406 C 171.138672 1483.191406 169.357407 1481.955078 167.753906 1480.306641 C 162.230713 1474.949097 157.421417 1466.707275 152.789063 1457.640625 C 137.110321 1426.31958 124.459785 1389.227539 112.878906 1350.488281 C 90.78614 1275.894653 71.900734 1196.767578 54.083984 1115.992188 C 46.957283 1083.434814 39.651875 1050.465576 33.416016 1016.259766 C 33.237846 1015.435486 33.05946 1015.023499 32.703125 1013.375 C 28.427103 1033.156738 23.438562 1050.878418 18.984375 1069.423828 C 18.093536 1073.132813 17.736328 1076.841797 17.736328 1080.138672 C 17.736328 1083.847778 18.271927 1087.968628 19.697266 1091.265625 C 41.077362 1141.956299 53.905445 1205.010254 67.089844 1267.652344 C 81.521408 1336.064209 95.240532 1405.713135 110.384766 1474.125 C 111.631935 1479.482544 112.166016 1482.367188 112.166016 1484.839844 C 112.166016 1487.724609 110.740654 1489.373047 107.355469 1492.669922 L 97.734375 1502.560547 C 97.199867 1503.384766 96.665359 1503.796875 96.130859 1503.796875 Z M 180.226563 1502.148438 C 178.979385 1502.148438 178.265625 1500.5 178.265625 1498.027344 C 178.265625 1497.203125 178.444885 1496.378906 178.623047 1495.142578 C 179.513885 1491.845703 180.937943 1489.785156 182.363281 1488.136719 C 192.340637 1476.185303 202.319305 1465.058716 213.1875 1459.701172 C 214.791 1458.876953 215.324219 1457.640625 215.324219 1455.992188 C 215.324219 1454.755859 214.96962 1453.517578 214.613281 1451.457031 C 197.152878 1363.26355 179.692383 1275.070557 164.013672 1185.228516 C 154.214478 1128.768188 145.304443 1071.895996 139.78125 1012.138672 C 139.603073 1009.253845 139.070084 1008.429688 138.357422 1008.429688 C 138.001083 1008.429688 137.465714 1008.429688 137.109375 1008.841797 C 132.120682 1010.490295 127.131691 1012.962891 121.964844 1012.962891 C 120.183167 1012.962891 118.580505 1012.550781 116.798828 1012.138672 C 116.086159 1011.726563 115.016052 1012.550842 114.837891 1010.490234 L 114.837891 1010.078125 C 114.837891 1007.605408 115.728737 1007.193359 116.441406 1006.78125 C 121.073746 1001.835815 125.705986 997.302856 130.160156 992.357422 C 131.050995 991.533142 131.943146 991.121094 132.833984 991.121094 C 133.190323 991.121094 133.723312 991.533203 134.257813 991.533203 C 135.326828 991.945313 136.218109 992.357422 137.287109 992.357422 C 139.781464 992.357422 142.27713 990.709045 144.771484 987.824219 C 147.800339 984.527222 151.185562 981.228577 154.392578 977.931641 C 154.927078 977.107361 155.461166 976.695313 156.173828 976.695313 C 156.708328 976.695313 157.242844 977.107361 157.777344 977.931641 C 158.846344 979.167969 159.380859 979.992126 159.380859 981.228516 C 159.380859 982.052734 159.023209 983.289001 158.310547 985.349609 C 164.902756 982.464783 171.13913 977.519653 177.375 972.162109 C 178.087677 971.75 179.156464 970.101563 179.869141 970.101563 C 180.225479 970.101563 180.581589 970.101501 180.759766 971.337891 L 180.759766 972.162109 C 180.759766 975.046936 178.978729 975.871094 178.087891 977.107422 C 172.208359 983.701355 166.149933 990.296753 159.914063 995.242188 C 158.666901 996.478516 158.132813 997.714783 158.132813 999.775391 C 158.132813 1000.599609 158.13237 1001.423767 158.310547 1002.660156 C 164.190079 1062.41748 173.27655 1120.114014 183.253906 1176.574219 C 199.467133 1268.064697 217.106659 1358.318237 235.101563 1447.748047 C 235.992401 1452.281372 237.060776 1454.34375 239.376953 1454.34375 L 241.337891 1454.34375 C 246.326584 1454.34375 251.314468 1455.579956 256.125 1459.289063 C 258.797516 1460.9375 261.114807 1463.822144 262.896484 1468.355469 C 263.430969 1469.591797 263.609375 1470.416016 263.609375 1471.652344 C 263.609375 1472.476563 263.252167 1473.300781 262.361328 1474.125 L 247.929688 1488.960938 C 247.751526 1489.373047 247.395401 1489.785156 247.039063 1489.785156 C 246.682724 1489.785156 246.327026 1489.373047 245.970703 1488.548828 C 242.05101 1479.070068 236.883224 1477.421875 231.894531 1476.185547 C 229.934692 1475.361328 227.975037 1474.537109 226.193359 1474.537109 C 224.411682 1474.537109 222.808578 1475.361328 221.205078 1477.421875 C 221.026901 1477.421875 220.670349 1477.833984 220.492188 1477.833984 C 219.066849 1475.361328 217.462448 1474.537109 216.037109 1474.537109 C 213.720932 1474.537109 211.583755 1476.185547 209.267578 1476.185547 L 208.910156 1476.185547 C 206.415817 1476.185547 204.101349 1477.421875 201.785156 1478.246094 C 200.359818 1479.070313 198.755859 1478.245972 198.755859 1483.191406 C 198.755859 1484.427734 197.686844 1485.251953 197.152344 1486.076172 C 192.163651 1491.021606 187.173813 1496.378784 182.363281 1501.324219 C 181.65062 1501.736328 180.939224 1502.148438 180.226563 1502.148438 Z M 288.195313 1498.027344 C 287.838959 1498.027344 287.482849 1497.615234 287.304688 1495.142578 C 286.413849 1478.657959 283.385406 1463.408447 280.712891 1447.748047 C 269.132019 1378.099976 255.768997 1309.276855 243.119141 1240.453125 C 241.693802 1232.622803 240.268661 1225.203369 239.021484 1217.785156 C 238.665146 1215.3125 238.307953 1214.488281 237.773438 1214.488281 C 237.417114 1214.488281 236.884109 1214.900391 236.349609 1215.3125 C 229.579239 1222.318604 222.807907 1229.32605 215.859375 1235.095703 C 210.514343 1239.216919 205.169678 1242.513672 199.646484 1244.574219 C 199.111984 1244.574219 198.577469 1244.986328 198.042969 1244.986328 C 197.330307 1244.986328 196.618057 1244.574219 196.261719 1242.513672 C 196.083557 1241.689453 195.904297 1240.865234 195.904297 1240.041016 C 195.904297 1237.980469 196.617844 1236.332031 197.152344 1234.683594 C 198.755859 1230.150269 200.536682 1226.029419 202.318359 1221.908203 C 210.514023 1202.950684 218.175598 1182.756348 225.480469 1162.150391 C 226.727646 1158.853516 227.261719 1155.96875 227.261719 1152.671875 C 227.261719 1150.611328 227.084854 1148.550781 226.728516 1146.078125 C 219.245468 1102.393555 212.474594 1058.295898 207.664063 1012.550781 C 207.307739 1010.078064 207.128906 1008.017578 207.128906 1006.78125 C 207.128906 1003.484253 208.01976 1002.248108 210.335938 999.775391 C 214.433807 995.654175 218.710739 991.531311 222.808594 987.410156 C 223.521271 986.585876 224.234161 985.761719 225.125 985.761719 C 225.481339 985.761719 226.193359 986.585876 226.193359 987.410156 C 226.193359 987.822266 226.193802 988.236328 226.015625 988.648438 C 225.302963 990.296936 225.125 991.533142 225.125 993.181641 C 225.125 995.242249 225.657761 997.714783 225.835938 999.775391 C 229.933792 1036.041748 235.101364 1071.895752 240.802734 1106.925781 C 240.980896 1108.162109 240.980255 1109.398438 241.871094 1110.222656 C 242.940109 1105.689453 244.366547 1101.156372 245.435547 1096.623047 C 253.809387 1065.714233 260.935547 1033.569092 265.746094 998.539063 C 266.458771 993.593628 267.171875 988.646606 267.171875 983.289063 C 267.171875 980.816345 266.993042 977.931702 266.636719 975.458984 C 266.636719 974.634705 266.458984 974.222656 266.458984 973.398438 C 266.458984 971.749939 266.9935 970.101563 268.0625 969.277344 C 272.694855 964.744019 277.506317 959.79895 282.138672 954.853516 C 282.673187 954.441406 283.027985 954.029297 283.5625 954.029297 C 284.275146 954.029297 284.810547 955.265564 284.810547 958.150391 C 285.16687 965.568542 286.947906 971.337769 289.085938 976.695313 C 295.856293 994.416443 302.092682 1013.374512 308.150391 1032.332031 C 311.535583 1042.63501 315.634338 1051.288818 320.623047 1057.470703 C 321.157532 1058.294922 322.046875 1059.119141 322.046875 1060.767578 C 321.868713 1062.416016 321.157532 1062.828125 320.623047 1063.240234 L 306.191406 1078.078125 C 305.835052 1078.490234 305.477448 1078.490234 305.121094 1078.490234 C 304.408447 1078.490234 303.697052 1077.666016 302.984375 1076.841797 C 297.639343 1069.835693 293.540375 1059.531494 289.798828 1048.404297 C 286.235474 1037.2771 282.673187 1026.150635 278.931641 1015.023438 C 278.575317 1015.847656 278.217255 1016.259766 278.039063 1017.083984 C 270.199707 1059.532104 259.509918 1098.682861 247.394531 1135.361328 C 246.681854 1137.009766 246.503906 1138.658203 246.503906 1140.306641 C 246.503906 1141.130859 246.50499 1142.369141 246.861328 1143.605469 L 253.275391 1180.695313 C 253.631729 1183.580078 254.164719 1184.404297 254.699219 1184.404297 C 255.233719 1184.404297 255.590073 1183.992188 256.302734 1183.167969 C 268.774475 1167.095215 280.533478 1148.549316 292.470703 1130.828125 C 300.131927 1119.700928 308.329254 1111.459229 316.703125 1103.216797 C 317.593964 1102.392578 318.483734 1101.568359 319.552734 1101.15625 C 320.265411 1100.744141 320.979156 1100.332031 321.513672 1100.332031 C 323.651672 1100.332031 324.72049 1103.216675 325.611328 1108.986328 C 326.680328 1118.465088 326.678802 1128.355225 327.035156 1137.833984 C 328.816833 1189.348755 331.667786 1240.039917 338.972656 1288.669922 C 347.524719 1346.366455 360.710876 1397.881836 377.636719 1444.451172 C 379.418396 1448.984497 381.198364 1452.69519 383.158203 1456.404297 C 384.405396 1458.876953 385.652802 1460.525391 387.078125 1460.525391 C 387.790802 1460.525391 388.681427 1460.113281 389.572266 1458.464844 C 389.928619 1458.052734 390.286255 1457.640625 390.642578 1457.640625 C 390.998932 1457.640625 391.177307 1457.640625 391.355469 1458.464844 C 391.53363 1458.876953 391.533203 1459.289063 391.533203 1460.113281 C 391.533203 1460.9375 391.176208 1462.173828 390.998047 1462.998047 C 390.28537 1465.058594 389.217438 1465.882813 388.148438 1467.119141 C 384.050568 1471.240356 379.951385 1474.949097 375.853516 1479.894531 C 374.606354 1481.542969 373.182281 1482.367188 372.113281 1482.367188 C 370.153442 1482.367188 368.371521 1480.306641 366.589844 1477.421875 C 361.779297 1468.355225 357.858704 1457.638916 354.117188 1446.511719 C 333.271667 1382.633301 318.661896 1311.749756 313.138672 1232.210938 C 311.178833 1202.950439 309.575928 1174.102295 308.863281 1144.429688 C 308.685089 1139.072021 308.150818 1133.713013 307.972656 1127.943359 C 307.794464 1125.058594 307.437286 1123.410156 306.724609 1123.410156 C 306.368286 1123.410156 305.656036 1124.234375 304.943359 1125.470703 C 297.81665 1136.185791 290.511902 1146.9021 283.207031 1157.617188 C 275.011322 1169.156494 266.458313 1180.282959 257.90625 1190.585938 C 256.659088 1191.822266 256.125 1193.058594 256.125 1195.119141 C 256.125 1195.943359 256.30426 1197.179688 256.482422 1198.828125 C 268.954163 1267.651978 282.316681 1336.064819 294.253906 1405.300781 C 297.817261 1426.318848 301.735687 1447.337402 304.408203 1469.179688 C 304.764526 1471.652344 304.942932 1474.125 305.121094 1476.185547 C 305.121094 1477.009766 305.298828 1477.833984 305.298828 1478.246094 C 305.298828 1480.306641 304.764313 1481.955078 303.695313 1482.779297 C 298.884796 1487.312622 294.253876 1492.25769 289.443359 1497.203125 C 289.087036 1497.615234 288.551636 1498.027344 288.195313 1498.027344 Z M 483.341797 1467.890625 C 487.20932 1464.525024 491.155762 1461.707886 495.226563 1459.701172 C 496.830048 1458.876953 497.365234 1457.640625 497.365234 1455.992188 C 497.365234 1454.755859 497.008698 1453.517578 496.652344 1451.457031 C 479.192078 1363.263916 461.731323 1275.070313 446.052734 1185.228516 C 436.25351 1128.768311 427.345459 1071.895752 421.822266 1012.138672 C 421.644104 1009.253845 421.109161 1008.429688 420.396484 1008.429688 C 420.040161 1008.429688 419.504761 1008.429688 419.148438 1008.841797 C 414.15976 1010.490295 409.170776 1012.962891 404.003906 1012.962891 C 402.616425 1012.962891 401.335541 1012.711487 399.996094 1012.40625 C 404.319122 1036.924072 408.133484 1061.926758 412.201172 1086.732422 C 418.437042 1125.059326 425.028046 1162.973877 431.976563 1200.888672 C 432.511078 1203.773438 433.223969 1205.009766 434.292969 1205.009766 L 434.828125 1205.009766 C 436.609772 1204.185547 438.569458 1203.773438 440.529297 1203.361328 L 441.0625 1203.361328 C 441.775177 1203.361328 442.132813 1203.773438 442.132813 1205.009766 C 442.132813 1205.833984 441.953979 1206.658203 441.597656 1207.894531 C 440.350494 1212.427856 439.103058 1216.962769 437.677734 1221.496094 C 437.143219 1223.144531 436.964844 1224.380859 436.964844 1226.029297 C 436.964844 1227.265625 437.143677 1228.914063 437.5 1230.5625 C 447.477417 1284.550049 457.990051 1338.537964 468.501953 1392.525391 C 473.390808 1417.780762 478.427521 1442.694214 483.341797 1467.890625 Z M 980.732422 1335.240234 C 988.571777 1335.240234 996.411316 1334.003906 1004.785156 1333.179688 C 985.186707 1269.713623 966.124084 1206.659424 947.238281 1141.957031 C 947.416443 1142.78125 947.416016 1143.605469 947.416016 1144.429688 L 947.416016 1145.666016 C 955.611755 1207.483643 963.985107 1268.889404 972.537109 1330.707031 C 973.071655 1334.004028 973.963745 1334.828125 975.210938 1334.828125 C 976.992615 1334.828125 978.950745 1335.240234 980.732422 1335.240234 Z M 214.078125 1223.96875 C 222.095627 1221.908203 229.221817 1215.724854 235.992188 1207.894531 C 236.526703 1207.482422 236.705078 1206.658203 236.705078 1205.833984 C 236.705078 1204.597656 236.527786 1203.773438 236.349609 1202.949219 C 235.102432 1196.355225 233.854172 1189.349731 232.785156 1182.755859 C 232.428818 1180.695313 232.25087 1179.458984 231.894531 1179.458984 C 231.538208 1179.458984 231.180984 1180.283203 230.646484 1181.519531 C 226.192291 1193.058838 221.382355 1203.773193 216.75 1215.3125 C 215.859161 1217.373047 214.612625 1219.435425 214.078125 1223.96875 Z"/>
    </g>
</svg>
