<?xml version="1.0" encoding="UTF-8"?>
<!-- Generated by Pixelmator Pro 3.6.17 -->
<svg width="1800" height="2880" viewBox="0 0 1800 2880" xmlns="http://www.w3.org/2000/svg">
    <g id="Group-copy" opacity="0.05">
        <path id="nikhil-yates" fill="#ffffff" fill-rule="evenodd" stroke="none" d="M 1199.866455 1793.923706 C 1199.875732 1797.308838 1199.393555 1800.659912 1198.4198 1803.980469 C 1193.284058 1816.46167 1177.448486 1827.172119 1150.914185 1836.111328 C 1124.379883 1845.050537 1093.308228 1852.387695 1057.701172 1858.122314 C 1022.094116 1863.856812 987.941895 1868.327393 955.244751 1871.532104 C 925.073792 1874.489136 901.40564 1876.510254 884.207153 1877.600342 C 899.463257 1876.708496 919.280701 1875.992432 943.689453 1875.452881 C 970.394958 1874.862671 996.414795 1875.241577 1021.750793 1876.590942 C 1043.662964 1878.446289 1061.296021 1886.922607 1074.648804 1902.018066 C 1088.001343 1917.113403 1094.336182 1935.286499 1093.651489 1956.53833 C 1092.966675 1977.790283 1082.437378 1998.662354 1062.065918 2019.155029 C 1041.694336 2039.647827 1008.741943 2056.219238 963.205933 2068.869141 C 960.11615 2069.681641 957.012939 2070.462158 953.899475 2071.214844 C 979.479858 2079.298584 1002.614258 2087.875488 1023.292114 2096.950684 C 1060.953491 2113.479736 1082.26709 2129.588379 1087.231567 2145.27417 C 1092.196045 2160.959961 1072.251343 2174.367188 1027.400024 2185.499023 C 987.684326 2194.606934 960.723938 2201.100098 946.515198 2204.979492 C 932.306458 2208.858887 927.597717 2211.053223 932.391052 2211.559326 C 937.184326 2212.06543 947.968506 2211.979492 964.744995 2211.304688 C 984.602966 2210.461426 1007.62793 2210.124268 1033.819946 2210.292969 C 1060.011841 2210.46167 1084.493652 2212.695801 1107.261841 2216.996826 C 1130.029907 2221.297607 1146.03479 2229.141602 1155.278931 2240.526367 C 1164.523193 2251.911377 1161.7854 2268.312988 1147.06311 2289.733398 C 1146.02124 2291.095459 1144.952271 2292.425293 1143.856567 2293.726318 C 1159.413086 2303.572021 1167.330566 2315.691406 1167.604858 2330.086914 C 1167.947266 2348.049561 1159.217529 2366.434326 1141.41394 2385.240234 C 1123.610352 2404.046387 1099.642578 2420.027344 1069.513306 2433.183105 C 1065.239258 2435.049316 1060.896118 2436.794189 1056.484375 2438.417725 C 1102.568726 2451.089111 1130.881836 2467.642822 1141.41394 2488.082031 C 1152.712402 2510.008301 1141.668945 2534.212158 1108.287109 2560.692383 C 1074.905273 2587.172852 1017.47113 2613.738525 935.985168 2640.387451 C 912.018677 2637.351563 886.341614 2636.338135 858.951355 2637.350098 C 823.686401 2638.699219 786.365967 2644.855469 746.992493 2655.818604 C 715.493713 2665.095215 693.068604 2673.950439 679.71582 2682.383789 C 666.363159 2690.816895 659.430786 2698.702637 658.917175 2706.039551 C 658.403687 2713.376465 661.741211 2719.995361 668.931152 2725.898438 C 676.121094 2731.801758 684.85083 2736.904785 695.122131 2741.205811 C 705.393555 2745.506592 714.46814 2748.796387 722.342834 2751.073242 C 730.217529 2753.350098 734.324158 2754.487061 734.666565 2754.487061 L 740.315796 2748.668945 C 739.973389 2748.668945 736.37854 2747.657471 729.531128 2745.633545 C 722.683533 2743.609619 714.808716 2740.740723 705.906738 2737.030273 C 697.004944 2733.31958 689.387024 2728.851318 683.05304 2723.622559 C 676.719116 2718.394043 673.89563 2712.533203 674.580383 2706.039551 C 675.265076 2699.545898 681.599731 2692.545898 693.583069 2685.040527 C 705.566223 2677.534912 725.59436 2669.735107 753.66925 2661.63916 C 791.330872 2651.013184 826.768188 2645.108154 859.978882 2643.92749 C 881.20636 2643.084229 901.234314 2643.591064 920.065125 2645.446289 C 935.814514 2646.964355 950.878906 2649.156738 965.258728 2652.023926 L 965.772522 2652.023926 C 1000.010315 2659.445313 1027.829834 2668.088867 1049.228394 2677.955811 C 1070.627075 2687.822754 1083.894043 2695.455078 1089.029785 2700.852295 C 1094.50769 2705.574951 1099.300049 2713.755859 1103.408569 2725.393799 C 1107.517212 2737.031738 1106.576782 2750.101807 1100.585083 2764.606934 C 1094.593506 2779.112305 1079.100708 2793.154053 1054.107056 2806.731445 C 1029.113403 2820.309082 990.081299 2831.398438 937.012695 2840.000488 C 879.493164 2848.770996 829.334167 2854.33667 786.536987 2856.697754 C 743.739624 2859.059082 705.564514 2860.409912 672.011536 2860.74707 C 643.251709 2861.084473 616.120117 2861.968018 590.612915 2863.401611 C 565.105713 2864.835205 539.512024 2868.166748 513.83374 2873.395264 C 469.666901 2881.997314 434.058258 2880.944092 407.010315 2870.233887 C 379.962524 2859.523682 362.160309 2843.077881 353.600861 2820.898438 C 345.041412 2798.719238 346.410217 2774.727051 357.708771 2748.921387 C 358.393494 2747.572021 359.079102 2746.223633 359.763824 2744.874268 L 359.763824 2744.621826 L 360.277618 2743.862549 L 361.81665 2740.827148 L 362.844208 2738.80127 L 362.844208 2738.549072 L 363.871735 2737.030273 L 365.413055 2734.247314 L 366.440582 2732.730713 C 382.189972 2707.09375 408.723999 2684.661621 446.043243 2665.433838 C 485.759247 2645.025391 538.312988 2632.966553 603.707275 2629.255859 L 602.679749 2622.676025 C 533.861694 2626.55542 478.567871 2639.290527 436.797668 2660.879639 C 423.102509 2667.794922 410.778229 2675.21582 399.822052 2683.143066 C 383.730286 2672.685791 368.751709 2661.006104 354.885284 2648.103027 C 341.019012 2635.200195 332.201416 2622.297607 328.435181 2609.394531 C 324.669098 2596.491699 329.634827 2584.895508 343.329987 2574.607178 C 361.818359 2562.463135 387.838348 2553.73584 421.391357 2548.422852 C 454.944489 2543.109863 489.696167 2539.862305 525.645935 2538.681641 C 561.59552 2537.500977 592.324219 2537.333496 617.831421 2538.176758 C 643.338623 2539.02002 656.091431 2539.440918 656.091431 2539.440918 C 656.091431 2539.440918 654.208313 2535.30957 650.4422 2527.045166 C 646.676025 2518.780518 644.964417 2508.660645 645.306763 2496.685547 C 645.64917 2484.710205 650.955444 2472.651367 661.226868 2460.507568 C 671.498169 2448.363525 690.157227 2438.157715 717.2052 2429.893066 C 740.859131 2422.665771 773.285828 2418.341309 814.483276 2416.918213 C 811.844788 2416.449707 809.205688 2416.05127 806.5672 2415.726318 C 790.133057 2413.702393 775.154297 2413.281494 761.630432 2414.462158 C 748.106506 2415.642822 737.148621 2417.202637 728.760498 2419.142334 C 720.372131 2421.082031 716.179871 2422.051514 716.179871 2422.051514 C 684.338623 2428.460693 658.830811 2429.937012 639.657593 2426.479248 C 620.484314 2423.021729 606.019958 2416.821533 596.262146 2407.882324 C 586.504333 2398.943115 579.741211 2389.583252 575.974976 2379.800781 C 575.290283 2376.090088 574.264099 2372.463379 572.894653 2368.921387 C 571.525146 2362.680908 570.753906 2357.62207 570.582703 2353.742676 C 570.41156 2349.863281 570.325806 2347.922363 570.325806 2347.922363 C 570.325806 2347.922363 576.574829 2347.880371 589.071594 2347.795898 C 601.56842 2347.71167 618.430115 2346.995605 639.657593 2345.646484 C 660.885071 2344.296875 685.021912 2341.767578 712.069763 2338.056885 C 740.487183 2333.334473 768.906433 2326.081055 797.323853 2316.29834 C 805.096313 2313.711426 813.282532 2311.143799 821.876587 2308.596436 C 794.982178 2303.470459 764.973755 2298.616455 731.843079 2294.035156 C 683.054199 2287.288574 628.188782 2283.408447 567.245422 2282.396484 C 498.0849 2281.72168 444.929108 2279.994385 407.780975 2277.211426 C 370.632996 2274.428467 344.955811 2268.946289 330.747162 2260.766357 C 316.538361 2252.585938 309.603882 2240.231934 309.946259 2223.702637 C 310.288635 2211.558838 319.277618 2202.703613 336.910126 2197.137695 C 354.54248 2191.571777 375.084656 2188.198486 398.537628 2187.017822 C 421.990448 2185.837158 443.132599 2185.58374 461.963318 2186.258545 C 475.632019 2186.748291 485.093353 2187.147461 490.463989 2187.459473 C 484.300598 2186.953369 472.746277 2185.87915 455.800354 2184.234863 C 433.2034 2182.042236 407.781097 2178.964355 379.534943 2175.000488 C 351.288757 2171.037109 326.894714 2166.145508 306.352142 2160.32666 C 285.809387 2154.507813 275.537262 2147.844727 275.537262 2140.339355 C 275.537262 2132.83374 292.656128 2124.5271 326.89389 2115.419189 C 369.348846 2104.793457 407.44043 2100.155273 441.164703 2101.504639 C 474.888947 2102.854004 503.734528 2107.238525 527.700989 2114.659668 C 551.667419 2122.081055 570.412292 2129.713379 583.936157 2137.556396 C 594.438843 2143.646973 601.569519 2148.077637 605.361267 2150.862549 C 606.172729 2151.526611 606.991699 2152.194092 607.817444 2152.863525 C 607.281982 2152.335938 606.452026 2151.663574 605.361267 2150.862549 C 557.72168 2111.876465 534.658813 2082.226074 536.173645 2061.910645 C 537.714417 2041.249268 556.373474 2028.220825 592.151978 2022.823486 C 610.157288 2020.107422 630.35437 2018.824463 652.738403 2018.970215 C 647.955505 2012.343994 643.93689 2005.027344 640.68512 1997.017944 C 634.864685 1983.862183 631.953308 1968.850708 631.953308 1951.984253 L 619.115845 1951.984253 C 619.115845 1969.187988 622.024963 1984.620361 627.845398 1998.282104 C 628.872498 2001.486816 630.241455 2004.606689 631.953308 2007.642578 C 614.149658 2010.678467 593.607483 2013.252075 570.325806 2015.360352 C 547.044067 2017.46875 522.735962 2018.184814 497.399872 2017.510132 C 465.21637 2015.823486 439.022858 2009.37207 418.82251 1998.155884 C 398.622284 1986.939697 384.757538 1974.332031 377.22522 1960.333008 C 369.692902 1946.333862 369.007324 1934.105225 375.170166 1923.648193 C 378.251495 1919.768799 387.23822 1916.10022 402.131775 1912.642578 C 417.025146 1909.185059 433.203522 1906.148682 450.664917 1903.534424 C 468.12616 1900.920166 482.335785 1898.855713 493.291962 1897.337646 C 500.481934 1896.494385 504.588562 1895.987549 505.615662 1895.81897 C 505.615662 1895.650391 503.646942 1895.775879 499.709595 1896.19751 C 495.772247 1896.619141 490.894379 1897.167725 485.073914 1897.842529 C 474.460114 1898.854492 464.102356 1899.86792 454.002167 1900.880005 C 443.901978 1901.89209 437.483795 1902.480225 434.744843 1902.648926 C 398.452698 1903.323608 371.918671 1898.980713 355.142181 1889.619873 C 338.365662 1880.259033 328.093384 1868.158203 324.327301 1853.315796 C 320.561066 1838.473389 319.87561 1823.124756 322.272217 1807.270386 C 325.011322 1791.584595 339.220825 1778.977051 364.899261 1769.44751 C 390.577576 1759.917969 420.277893 1754.773193 454.002167 1754.01416 C 487.72644 1753.255127 518.112305 1758.274414 545.160095 1769.06897 C 572.208069 1779.526123 600.370178 1786.693604 629.643616 1790.572876 C 658.91687 1794.452271 684.167786 1796.432983 705.395264 1796.517334 C 726.622742 1796.601563 737.235413 1796.645752 737.235413 1796.645752 C 737.235413 1796.645752 739.032776 1794.451172 742.627747 1790.065918 C 746.222717 1785.680664 753.497864 1779.440796 764.453918 1771.344849 C 775.410095 1763.249023 791.845459 1753.677612 813.75769 1742.630127 C 835.669922 1731.582642 864.770569 1719.481812 901.062378 1706.32605 C 908.396667 1703.783569 915.727844 1701.542847 923.055298 1699.604248 C 900.898132 1695.78418 878.502563 1688.748535 855.868774 1678.494629 C 839.434631 1670.904663 823.001343 1666.099243 806.5672 1664.075317 C 790.133057 1662.051147 775.154297 1661.628174 761.630432 1662.808838 C 748.106506 1663.989502 737.148621 1665.549438 728.760498 1667.489136 C 720.372131 1669.428711 716.179871 1670.400513 716.179871 1670.400513 C 684.338623 1676.809814 658.830811 1678.283813 639.657593 1674.826172 C 620.484314 1671.368408 606.019958 1665.170532 596.262146 1656.231323 C 586.504333 1647.292114 579.741211 1637.932373 575.974976 1628.14978 C 575.290283 1624.439209 574.264099 1620.8125 572.894653 1617.270508 C 571.525146 1611.029907 570.753906 1605.968872 570.582703 1602.089478 C 570.41156 1598.210205 570.325806 1596.27124 570.325806 1596.27124 C 570.325806 1596.27124 576.574829 1596.229492 589.071594 1596.145142 C 601.56842 1596.060791 618.430115 1595.344727 639.657593 1593.995361 C 660.885071 1592.646118 685.021912 1590.116577 712.069763 1586.406006 C 725.399414 1584.190796 738.730652 1581.417358 752.060364 1578.088867 C 742.297485 1576.642822 732.392883 1574.946533 722.342834 1572.996216 C 677.833679 1563.551025 640.513306 1554.779419 610.384033 1546.683594 C 582.651306 1539.262207 556.460205 1533.106079 531.808899 1528.214844 C 507.157684 1523.32373 479.68103 1520.457153 449.380493 1519.61377 C 422.942657 1518.87793 391.094727 1520.132202 353.839722 1523.376953 C 386.440399 1524.329102 416.919678 1528.385498 445.272583 1535.55188 C 477.969757 1543.816406 505.446381 1554.991821 527.700989 1569.075317 C 549.955566 1583.158813 565.019958 1599.223511 572.894653 1617.270508 C 573.579407 1620.643799 574.60553 1624.270386 575.974976 1628.14978 C 577.002258 1632.366333 577.516296 1636.581299 577.516296 1640.797974 C 577.516296 1662.555786 566.815613 1682.333008 545.416992 1700.126953 C 524.01825 1717.921143 495.175079 1732.130493 458.882965 1742.756348 C 422.590851 1753.382202 382.530365 1758.694458 338.706055 1758.694458 C 294.539246 1758.694458 254.395401 1753.382202 218.274536 1742.756348 C 182.153656 1732.130493 153.393723 1717.921143 131.995117 1700.126953 C 110.59639 1682.333008 99.898071 1662.555786 99.898071 1640.797974 C 99.898071 1619.208618 110.59639 1599.517578 131.995117 1581.723511 C 153.393723 1563.929321 182.153656 1549.719971 218.274536 1539.094238 C 238.764877 1533.066406 260.551758 1528.750244 283.631378 1526.141846 C 269.904114 1524.924194 260.87088 1522.033203 256.536804 1517.464111 C 247.977234 1508.440552 250.543686 1496.674561 264.238831 1482.169434 C 277.93399 1467.664429 295.909729 1454.256958 318.164307 1441.944458 C 340.418915 1429.63208 360.106354 1422.2948 377.22522 1419.933594 C 418.995453 1415.042358 455.20166 1414.451782 485.844574 1418.162354 C 516.487366 1421.873047 544.39032 1428.408081 569.555115 1437.769043 C 594.719971 1447.129761 620.31366 1458.05188 646.334351 1470.533081 C 650.100586 1472.388428 654.038025 1474.24353 658.146484 1476.098877 C 617.403564 1446.245117 599.342041 1420.565308 603.964172 1399.060547 C 608.586365 1377.555664 628.359314 1360.394043 663.281921 1347.575439 C 698.20459 1334.75708 740.745483 1326.366577 790.903992 1322.403076 C 841.062073 1318.439331 891.390808 1319.030029 941.891296 1324.174194 C 992.391663 1329.318481 1035.619019 1339.268799 1071.568359 1354.026855 C 1107.517822 1368.785034 1128.745728 1388.392578 1135.250977 1412.848999 C 1141.756226 1437.305542 1126.005981 1466.821167 1088.002197 1501.397461 C 1079.816895 1508.681641 1070.557495 1515.67041 1060.233887 1522.365112 C 1090.762939 1523.43457 1114.31311 1527.704834 1130.883911 1535.17334 C 1155.021606 1546.052124 1167.262573 1560.473267 1167.604858 1578.435791 C 1167.610229 1578.716553 1167.613037 1578.997803 1167.613892 1579.278564 C 1167.671997 1596.973633 1158.939331 1615.077271 1141.41394 1633.589355 C 1123.610352 1652.395386 1099.642578 1668.376465 1069.513306 1681.532227 C 1058.748901 1686.232422 1047.547119 1690.16333 1035.908813 1693.324097 C 1063.296997 1696.98645 1088.623291 1703.596313 1111.883545 1713.156006 C 1141.841553 1725.468384 1164.866699 1739.889404 1180.958374 1756.418579 C 1193.530151 1769.331787 1199.832886 1781.833862 1199.866455 1793.923706 Z M 572.894653 2368.921387 C 573.579407 2372.294678 574.60553 2375.921387 575.974976 2379.800781 C 577.002258 2384.017334 577.516296 2388.234619 577.516296 2392.451172 C 577.516296 2414.20874 566.815613 2433.983887 545.416992 2451.777832 C 524.01825 2469.572021 495.175079 2483.78125 458.882965 2494.407227 C 422.590851 2505.033203 382.530365 2510.347656 338.706055 2510.347656 C 294.539246 2510.347656 254.395401 2505.033203 218.274536 2494.407227 C 182.153656 2483.78125 153.393723 2469.572021 131.995117 2451.777832 C 110.59639 2433.983887 99.898071 2414.20874 99.898071 2392.451172 C 99.898071 2370.862061 110.59639 2351.170898 131.995117 2333.376709 C 153.393723 2315.58252 182.153656 2301.371094 218.274536 2290.745117 C 254.395401 2280.119141 294.539246 2274.807129 338.706055 2274.807129 C 377.052429 2274.807129 412.575439 2278.94043 445.272583 2287.205078 C 477.969757 2295.469727 505.446381 2306.642578 527.700989 2320.726318 C 549.955566 2334.809814 565.019958 2350.874268 572.894653 2368.921387 Z M 1183.799927 1048.097656 C 1183.726563 1069.674805 1177.89978 1088.121704 1166.320435 1103.436035 C 1147.318481 1128.567139 1119.843628 1146.486816 1083.894287 1157.197021 C 1047.945068 1167.907104 1010.109619 1172.756836 970.394165 1171.744751 C 930.678711 1170.73291 895.928772 1165.167236 866.141846 1155.047241 C 866.141846 1154.204102 866.311035 1153.360107 866.653381 1152.516724 C 866.653381 1149.817993 866.653381 1147.035278 866.653381 1144.167969 C 866.653381 1141.300659 866.484253 1138.517822 866.141846 1135.819214 C 862.033325 1114.735962 853.644165 1095.802856 840.976196 1079.020752 C 828.308228 1062.23877 818.207397 1050.558594 810.67511 1043.980713 L 912.36084 1035.884399 L 909.79425 1029.306763 L 789.619568 1039.174316 L 794.755005 1043.221436 C 795.439758 1043.390137 799.977051 1047.818848 808.365356 1056.505005 C 816.753662 1065.191406 825.569031 1076.53418 834.813232 1090.533203 C 844.057495 1104.532227 850.049316 1119.7948 852.788391 1136.323975 C 853.130737 1139.022583 853.302185 1141.721802 853.302185 1144.42041 C 853.644531 1146.950317 853.644531 1149.565796 853.302185 1152.264404 C 852.959778 1155.637695 851.760071 1158.925049 849.70575 1162.129639 L 849.194275 1162.384277 C 836.183899 1177.057983 808.963806 1188.019653 767.536499 1195.272217 C 726.108643 1202.52478 679.715942 1207.162842 628.359192 1209.186768 C 577.002563 1211.210815 529.41217 1211.633789 485.587708 1210.453247 C 439.024261 1209.609863 397.254486 1206.785156 360.277618 1201.978271 C 323.300751 1197.171265 297.192871 1189.115723 281.957123 1177.815308 C 266.721222 1166.514893 268.006775 1150.49231 285.810394 1129.74646 C 300.190277 1115.578735 328.950073 1104.742554 372.089783 1097.236938 C 415.22934 1089.731445 463.331696 1084.628418 516.40033 1081.92981 C 569.469116 1079.231079 618.001831 1077.840942 661.997498 1077.756592 C 705.993103 1077.672241 736.036072 1077.88147 752.12793 1078.387573 C 748.704102 1076.194946 742.200317 1074.172119 732.613708 1072.316895 C 723.027161 1070.461548 708.988953 1069.28064 690.500427 1068.774658 C 647.703247 1068.437378 597.032349 1070.715576 538.485657 1075.606812 C 487.813599 1079.654785 439.109344 1082.267944 392.374664 1083.448608 C 345.639984 1084.629272 307.893311 1081.3396 279.133636 1073.581055 C 264.069 1069.195679 251.313919 1063.630127 240.871353 1056.883545 C 230.428802 1050.136963 226.493576 1042.253418 229.061432 1033.22998 C 231.629288 1024.206299 244.896301 1014.295654 268.862762 1003.501221 C 300.361542 990.851318 335.53952 984.485962 374.399506 984.401611 C 413.259491 984.317261 452.720001 986.298096 492.778198 990.345947 C 517.771912 992.707397 541.90863 994.478638 565.190369 995.659424 C 588.472229 996.840088 610.554443 996.503052 631.439514 994.647705 C 672.182495 989.925049 705.651123 981.069824 731.843079 968.082642 C 736.92981 965.560425 741.882141 963.007324 746.704102 960.427979 C 742.264954 960.108887 737.910034 959.751465 733.641296 959.353027 C 678.518433 954.20874 634.86322 945.060669 602.679749 931.904785 C 570.496216 918.749023 547.044922 904.242065 532.322632 888.387573 L 532.322632 888.135254 L 530.781372 886.364014 L 530.267578 886.111694 L 529.753784 885.604736 L 529.240051 884.847534 C 510.409149 862.246338 509.897369 838.463745 527.700989 813.501221 C 536.94519 800.851318 551.15271 789.171387 570.325806 778.461182 C 589.499023 767.750977 613.466614 758.854004 642.22644 751.77002 L 642.737915 751.77002 L 637.088745 745.951904 L 636.577209 745.951904 C 606.105408 753.373047 580.683289 762.776855 560.311829 774.161865 C 539.940308 785.546631 524.961731 797.900879 515.375061 811.225342 C 511.951324 815.779297 509.211212 820.333496 507.156982 824.887451 C 485.929504 823.707031 460.764252 821.344971 431.662231 817.802979 C 402.560059 814.260986 377.908997 809.115967 357.708771 802.369629 C 357.708771 802.369629 358.47998 800.135254 360.020721 795.665771 C 361.561462 791.196289 363.787231 785.883789 366.697479 779.727783 C 369.607544 773.571289 373.20224 767.710693 377.482117 762.144531 C 381.761841 756.578857 386.468292 752.445313 391.604004 749.746582 L 438.852722 755.060059 C 438.852722 755.060059 435.515198 754.427734 428.838745 753.162598 C 422.162415 751.897705 414.544464 750.337891 405.985016 748.482422 C 397.425598 746.627197 389.722015 744.771729 382.87442 742.916504 C 376.027008 741.061279 372.601318 739.543213 372.601318 738.362549 C 372.601318 737.181885 373.115509 731.530029 374.142609 721.4104 C 375.169739 711.290527 377.652649 699.610596 381.589996 686.370361 C 384.047607 678.106201 387.505951 670.1875 391.964539 662.613037 C 370.238068 659.451904 352.30545 655.90332 338.192291 651.963623 C 322.785278 647.662598 315.081696 645.512207 315.081696 645.512207 C 315.081696 645.512207 315.081696 645.554199 315.081696 645.638428 C 315.081696 645.7229 314.998322 645.806396 314.827057 645.890869 C 314.655945 645.975098 314.484406 646.019287 314.313293 646.019287 C 314.142029 646.019287 314.056427 646.019287 314.056427 646.019287 C 314.056427 646.019287 314.056427 645.975098 314.056427 645.890869 C 314.056427 645.806396 314.142029 645.63916 314.313293 645.385986 C 314.484406 645.133057 314.739319 644.837891 315.081696 644.500488 C 315.424072 644.163086 315.852509 643.698242 316.366119 643.10791 C 316.879608 642.517578 317.565186 641.843262 318.421204 641.084473 C 319.277191 640.325439 320.303192 639.439453 321.501556 638.427734 C 322.699799 637.415527 324.070984 636.237061 325.611725 634.887695 C 327.152466 633.53833 328.864044 632.062256 330.747162 630.459717 C 332.63028 628.857422 334.684631 627.043945 336.910126 625.02002 C 339.135468 622.996094 341.701935 620.803711 344.612152 618.442383 C 347.5224 616.081299 350.605133 613.507568 353.857758 610.724609 C 357.110352 607.941895 360.79068 604.86377 364.899261 601.490479 C 385.784241 583.105957 397.168427 564.426025 399.051392 545.451172 C 400.934509 526.476563 399.820374 508.303223 395.711914 490.930908 C 392.288055 475.58252 391.347687 461.710205 392.888428 449.313232 C 393.266724 446.269287 394.0737 443.366211 395.308533 440.601807 C 377.452118 430.963623 376.900879 417.968994 393.659088 401.622803 C 404.615265 391.671631 414.887268 383.155762 424.473969 376.072021 C 434.060516 368.987793 440.392914 364.517578 443.474396 362.662109 C 444.159149 362.15625 444.501953 361.905029 444.501953 361.905029 C 420.535492 347.399658 401.53363 330.912354 387.496094 312.443359 C 373.458588 293.974854 373.115906 277.066406 386.468567 261.717773 C 400.506104 250.079834 425.499817 242.784668 461.449554 239.833008 C 497.39917 236.881592 530.268005 238.525146 560.054932 244.765625 C 551.153137 253.030029 546.701416 261.63208 546.701416 270.571289 C 546.701416 282.883789 553.121826 295.407715 565.960999 308.141846 C 578.800293 320.875732 594.121704 332.725586 611.925293 343.688721 C 629.729065 354.651611 646.847839 364.053467 663.281921 371.896484 C 679.716064 379.739258 692.211853 385.263184 700.771301 388.467773 C 706.249268 390.322998 710.015503 391.250732 712.069763 391.250732 L 712.069763 384.673096 C 712.069763 384.673096 711.900574 384.589355 711.558228 384.420654 C 711.21582 384.251953 710.187439 383.828857 708.475586 383.154297 C 700.258545 380.118408 688.189026 374.806152 672.268372 367.216064 C 656.347778 359.626221 639.657471 350.519775 622.196167 339.894043 C 605.419556 329.268066 590.869507 317.925293 578.543823 305.865723 C 566.218323 293.806396 560.054932 282.040283 560.054932 270.571289 C 560.054932 261.140869 565.593445 252.243164 576.662292 243.873291 C 547.110535 242.380371 514.012756 238.545166 477.369629 232.369873 C 426.012878 223.43042 386.640381 216.093506 359.250061 210.358887 C 331.859894 204.624268 313.115082 200.407227 303.014893 197.708496 C 292.914703 195.009766 287.86319 193.661377 287.86319 193.661377 L 315.595459 144.328369 C 315.595459 144.328369 322.444305 142.556641 336.139465 139.014893 C 349.834625 135.4729 366.010742 130.748779 384.67038 124.845703 C 403.329987 118.942383 420.962921 112.195801 437.568298 104.605713 C 454.173706 97.015869 465.900391 89.090576 472.747986 80.825928 C 483.361633 64.971436 495.34549 55.609619 508.698303 52.742188 C 522.051086 49.875 545.845032 51.139648 580.082886 56.536865 C 593.093323 58.39209 604.136658 61.639893 613.209717 66.278076 C 622.282654 70.916504 629.72937 76.270508 635.549683 82.342529 C 627.674988 103.593994 626.817993 123.833984 632.980835 143.061768 C 639.143555 162.289551 646.847229 178.103271 656.091431 190.499756 C 665.335632 202.896729 670.470642 209.262207 671.497742 209.599365 L 683.309937 207.071289 C 682.282837 206.565186 677.576233 200.701904 669.188049 189.48584 C 660.799744 178.269775 653.439087 163.851318 647.10498 146.225586 C 640.771057 128.600342 640.428223 109.920166 646.077454 90.186523 C 651.726624 70.452881 668.245544 51.898193 695.635864 34.525879 C 725.422791 17.322266 761.031616 6.69751 802.45929 2.649658 C 843.886414 -1.398438 885.743225 -0.807861 928.026245 4.420898 C 970.309326 9.649414 1007.628113 17.407227 1039.98291 27.695801 C 1072.337646 37.984131 1094.336426 48.948242 1105.977417 60.586182 C 1121.384399 76.103516 1133.623047 95.794434 1142.696167 119.660645 C 1147.09082 131.220703 1149.297363 142.739746 1149.314331 154.220459 C 1149.332275 166.442383 1146.870728 178.620117 1141.927734 190.752197 C 1132.341064 214.280762 1107.003906 233.297852 1065.919189 247.803223 C 1046.42334 253.930176 1026.204834 258.591797 1005.265137 261.791992 C 1013.413879 262.08374 1021.477051 262.900635 1029.455078 264.248291 C 1055.133545 269.308105 1078.758301 279.300537 1100.328247 294.227051 C 1121.898071 309.154053 1133.539063 327.791992 1135.250977 350.140137 C 1136.963013 372.488037 1120.527466 397.324219 1085.947144 424.647949 C 1098.615112 424.985352 1105.975952 428.609863 1108.030273 435.524902 C 1110.084473 442.440186 1102.980713 449.565674 1086.717773 456.902588 C 1070.454834 464.239746 1041.180176 468.668457 998.897095 470.186279 C 956.614014 471.704346 897.467102 467.149902 821.459717 456.52417 C 785.852478 451.632568 738.090698 448.68042 678.1745 447.668457 C 663.576416 447.421875 649.16217 447.307617 634.929993 447.321289 C 636.8396 449.555664 638.416809 451.864502 639.657593 454.248291 C 643.423645 463.861816 645.392395 474.065674 645.56366 484.860352 C 645.734802 495.654785 645.306396 505.056396 644.279236 513.068115 C 643.252136 521.07959 642.737915 525.085205 642.737915 525.085205 C 642.737915 525.085205 650.527283 522.892822 666.105408 518.507568 C 681.683716 514.122559 704.110962 508.935791 733.384399 502.947998 C 762.657654 496.960693 798.007202 491.227539 839.434875 485.74585 C 880.862122 480.26416 927.770203 476.258545 980.153564 473.728516 C 1031.852173 472.041992 1070.882446 478.618896 1097.245605 493.461426 C 1123.608643 508.303711 1138.418213 526.562744 1141.670776 548.236328 C 1144.923462 569.909912 1137.731812 590.19165 1120.099243 609.082031 C 1115.10498 614.432861 1109.374634 619.289551 1102.910522 623.652344 C 1114.13916 625.198975 1125.43103 631.050049 1136.790039 641.210693 C 1150.169434 650.534424 1156.785889 661.660645 1156.635498 674.585205 C 1156.628174 675.220947 1156.603516 675.86084 1156.563354 676.505127 C 1155.707397 690.251221 1147.232544 702.563721 1131.140869 713.442383 C 1115.049072 724.321289 1091.255005 730.435547 1059.756226 731.784912 C 1059.756226 731.784912 1063.608032 738.615234 1071.311523 752.2771 C 1079.015015 765.938965 1085.604614 782.88916 1091.082642 803.128906 C 1096.560669 823.368652 1096.989136 844.157104 1092.367065 865.493286 C 1089.444702 878.98291 1082.825317 891.493896 1072.512573 903.02771 C 1086.087402 908.123657 1099.126343 914.289551 1111.626587 921.530151 C 1142.782959 939.577393 1164.522583 966.647339 1176.848267 1002.741821 C 1181.529175 1019.147095 1183.846924 1034.266235 1183.799927 1048.097656 Z M 963.719727 839.054443 L 843.03125 823.873535 L 835.327026 837.790405 L 769.075562 799.081787 L 693.069275 840.573242 L 744.425903 854.740234 L 782.429077 827.16333 C 782.429077 827.16333 784.911987 828.260742 789.876465 830.453369 C 794.841064 832.645996 801.00415 835.342896 808.365356 838.547485 C 815.726501 841.752197 823.173035 844.8302 830.705322 847.78186 C 838.237671 850.733276 844.655823 853.095581 849.962646 854.866455 C 855.26947 856.637451 858.437988 857.186035 859.465149 856.511353 C 860.149902 855.49939 861.261719 853.853516 862.802368 851.576538 C 864.34314 849.299561 865.969055 846.939941 867.680908 844.494141 C 869.392883 842.048584 870.763977 839.897949 871.791077 838.042725 C 872.818298 836.187378 873.330139 835.259766 873.330139 835.259766 L 963.719727 839.054443 Z M 954.100037 266.645752 C 948.703979 266.861084 943.265625 266.988281 937.783386 267.029053 C 902.537354 267.289307 870.44989 265.31665 841.514771 261.11377 C 859.635315 270.612549 872.980591 281.691406 881.548218 294.353271 C 888.738159 305.990967 889.592773 318.810303 884.114807 332.809326 C 878.979065 345.62793 866.654724 359.374756 847.13916 374.04834 L 858.437622 377.588379 C 878.637878 362.408691 891.476501 347.98999 896.954529 334.328125 C 903.11731 319.148682 902.091187 305.232178 893.874146 292.582275 C 892.504639 290.220947 890.964355 287.944824 889.252441 285.752197 C 907.463257 278.442627 929.079773 272.073975 954.100037 266.645752 Z M 927.958679 655.20166 C 910.162537 655.375 891.868164 655.098389 873.073242 654.36792 C 834.241028 652.859131 798.453796 650.695801 765.702271 647.878418 C 784.348633 654.969971 802.763733 659.453369 820.945984 661.324219 C 847.993835 664.107178 874.784973 663.516602 901.319275 659.552979 C 910.228088 658.222168 919.107849 656.77002 927.958679 655.20166 Z M 847.652954 143.568848 C 847.652954 143.568848 844.741577 143.568848 838.921143 143.568848 C 833.100708 143.568848 825.654175 144.201172 816.581177 145.466309 C 807.508179 146.731201 797.92157 149.091064 787.821411 152.548584 C 777.721191 156.006104 768.134644 161.067139 759.061584 167.729492 C 749.988647 174.391602 742.627747 183.205078 736.978516 194.168457 C 732.083191 203.668701 729.440552 215.132813 729.044373 228.559326 C 737.405945 229.724609 745.627686 231.098145 753.709839 232.67627 C 753.132813 232.073975 752.605103 231.464111 752.12793 230.851074 C 750.415955 228.321045 749.732727 225.875244 750.075134 223.51416 C 750.759888 221.48999 751.27179 219.467529 751.614197 217.443359 C 753.668396 202.601074 760.346008 188.812256 771.644409 176.078369 C 782.942993 163.344238 808.280029 152.508057 847.652954 143.568848 Z M 653.524841 603.387695 C 653.524841 603.303467 653.524841 603.261475 653.524841 603.261475 C 653.524841 603.261475 653.439209 603.261475 653.267944 603.261475 C 653.096863 603.261475 653.011047 603.261475 653.011047 603.261475 C 653.011047 603.261475 652.925415 603.261475 652.754211 603.261475 C 652.583069 603.261475 652.497314 603.261475 652.497314 603.261475 C 652.497314 603.261475 652.068726 603.598633 651.212891 604.273193 C 650.356873 604.947998 649.245117 605.875488 647.87561 607.056152 C 646.524902 607.956299 643.922791 609.357178 640.101501 611.247559 C 641.128906 611.331055 642.151367 611.417969 643.170593 611.508789 C 644.685852 609.939453 646.253784 608.45459 647.87561 607.056152 C 648.560364 606.718994 649.243713 606.339844 649.928467 605.918213 C 650.61322 605.496582 651.213135 605.159424 651.726624 604.906494 C 652.240295 604.653564 652.583069 604.441895 652.754211 604.273193 C 652.925415 604.104492 653.096863 603.937256 653.267944 603.768555 C 653.439209 603.599854 653.524841 603.471924 653.524841 603.387695 Z M 494.831024 2187.777344 C 493.986572 2187.684814 492.493439 2187.577393 490.466248 2187.459473 C 492.520477 2187.628174 493.975037 2187.735107 494.831024 2187.777344 Z"/>
        <path id="path1" fill="#ffffff" fill-rule="evenodd" stroke="none" d="M 1698.10083 1243.149658 C 1698.10083 1253.838745 1692.87085 1264.323853 1686.214233 1274.807251 C 1671.474487 1297.007446 1649.602051 1317.562378 1612.515381 1334.418091 C 1572.575928 1352.712646 1523.600464 1364.428711 1466.068726 1368.95105 C 1456.08374 1369.773315 1446.575073 1370.185791 1437.065552 1370.185791 C 1405.208984 1370.185791 1376.204834 1365.867554 1350.529297 1356.000854 C 1345.299072 1353.94519 1340.069214 1351.478149 1336.265381 1348.805786 C 1324.854004 1340.378052 1316.294067 1331.539307 1309.161865 1322.700562 C 1307.735474 1320.644897 1306.784546 1318.385742 1306.784546 1316.3302 C 1306.784546 1315.302368 1306.784546 1314.478271 1307.26001 1313.450439 L 1307.26001 1312.835205 C 1307.26001 1312.013062 1307.735474 1311.190796 1310.112793 1310.985229 L 1310.588257 1310.985229 C 1312.48999 1310.985229 1312.965454 1312.013428 1313.916382 1312.630127 C 1320.097534 1319.619019 1329.608887 1325.990479 1333.412598 1333.390503 C 1333.888062 1334.418335 1335.789917 1335.034058 1337.691772 1335.650635 C 1360.514526 1343.256348 1385.239502 1347.77832 1413.29248 1347.77832 C 1418.047241 1347.77832 1422.801514 1347.573608 1428.031738 1347.368164 C 1521.699097 1342.845947 1588.265991 1321.056396 1632.484863 1285.495117 C 1655.782715 1266.789429 1670.524048 1243.356934 1672.425903 1224.856812 L 1672.425903 1223.006714 C 1672.425903 1219.923462 1671.950439 1216.428223 1670.999512 1213.139282 C 1670.048584 1210.672485 1667.669189 1208.616699 1663.389893 1206.766724 C 1644.84668 1199.161011 1622.97583 1196.284058 1599.677979 1196.284058 C 1594.923218 1196.284058 1589.693359 1196.488525 1584.938599 1196.694092 C 1523.603271 1199.366333 1470.348877 1210.878662 1420.424316 1225.884277 C 1356.711548 1245.001099 1306.784912 1269.874268 1264.943848 1297.830078 C 1239.268188 1315.096802 1216.920532 1333.184082 1192.195923 1350.450806 C 1177.456421 1361.139648 1161.291504 1371.418457 1141.796997 1380.668579 C 1135.140381 1383.751831 1128.482178 1386.423706 1119.44812 1388.273682 C 1114.693481 1389.301514 1109.938965 1389.713623 1105.184204 1389.713623 C 1098.527588 1389.713623 1091.87146 1388.684204 1085.214844 1386.628662 C 1083.312866 1385.806396 1081.411255 1385.190796 1079.984741 1384.36853 C 1060.490356 1371.82959 1042.896484 1358.467407 1042.421021 1343.050659 L 1042.421021 1341.407959 C 1042.421021 1333.445435 1045.707642 1326.294189 1051.808594 1319.349731 C 1051.878174 1319.319336 1051.932495 1319.275757 1051.932495 1319.207764 C 1051.890625 1319.255127 1051.850098 1319.302368 1051.808594 1319.349731 C 1051.667603 1319.411255 1051.457031 1319.412842 1051.457031 1319.412842 L 988.693848 1329.278076 C 984.414612 1329.894775 980.610962 1330.717041 980.610962 1332.978149 C 980.135498 1333.389282 979.184692 1333.800659 978.233704 1333.800659 C 977.75824 1333.800659 976.807312 1333.596069 976.331848 1333.390503 C 974.429932 1332.773926 972.528137 1331.952026 971.101746 1331.335449 C 963.494141 1327.42981 955.409485 1323.318359 947.326416 1319.412842 C 945.424561 1318.38501 944.473633 1317.5625 944.473633 1316.740356 C 944.473633 1315.506836 946.85083 1314.478271 951.605591 1313.450439 C 963.967834 1310.778198 976.806946 1308.517822 990.120239 1306.667725 C 1028.632935 1301.323364 1066.671509 1295.362915 1104.233276 1288.785034 L 1119.923584 1285.700073 C 1137.040771 1280.97229 1155.584839 1277.272583 1175.079346 1274.394897 C 1175.55481 1274.189331 1176.505737 1274.19043 1177.456665 1273.984863 L 1180.309448 1273.367432 C 1180.309448 1273.572876 1180.784912 1273.984253 1180.784912 1274.189941 C 1181.73584 1274.395508 1182.686768 1275.012085 1183.637695 1276.039917 C 1188.86792 1281.384399 1194.097656 1286.933716 1200.278809 1292.072632 C 1201.229736 1293.100464 1201.7052 1293.718262 1201.7052 1294.335083 C 1201.7052 1295.568359 1199.327881 1296.183594 1195.52417 1296.800171 C 1170.324219 1300.500244 1147.500854 1305.846802 1126.579956 1312.630127 C 1091.39502 1324.55249 1071.901978 1340.37854 1067.622681 1359.700928 L 1067.622681 1360.318359 C 1067.622681 1364.635132 1074.278931 1367.30603 1084.263916 1367.30603 C 1087.116699 1367.30603 1089.969482 1367.101929 1093.297729 1366.690796 C 1103.282593 1365.45752 1110.414063 1362.374634 1117.546265 1359.085693 C 1137.040771 1349.630127 1153.207642 1339.146851 1168.422852 1328.457886 C 1193.622925 1310.574341 1216.446045 1291.867188 1243.548096 1274.394897 C 1290.619385 1243.355835 1347.67749 1216.634399 1421.375244 1197.106445 C 1460.363892 1186.828613 1501.254272 1178.810791 1546.899414 1175.316406 C 1557.359863 1174.699707 1567.343994 1174.08374 1577.804443 1174.08374 C 1584.936523 1174.08374 1592.545898 1174.289551 1600.153442 1174.90625 C 1624.877686 1176.756226 1645.322021 1182.101318 1658.15979 1191.351318 C 1676.702881 1204.918091 1693.346069 1219.100952 1697.149902 1235.134399 C 1697.625366 1237.806641 1698.10083 1240.477417 1698.10083 1243.149658 Z M 1677.180542 1750.465088 C 1677.180542 1751.081787 1676.229614 1751.492676 1673.852295 1751.492676 C 1671.950439 1751.287109 1670.046265 1751.287598 1668.144409 1751.287598 C 1661.963257 1751.287598 1656.258057 1752.108643 1650.552368 1752.72522 C 1591.118652 1759.714233 1532.634277 1768.143555 1474.151611 1776.160278 C 1470.347778 1776.776978 1468.921509 1777.598511 1467.970581 1779.24292 C 1467.019653 1781.709595 1465.117798 1784.17627 1463.691406 1786.643066 C 1463.215942 1787.46521 1462.265015 1788.287476 1460.363159 1788.493042 L 1459.887695 1788.493042 C 1457.98584 1788.493042 1457.98584 1787.464722 1457.034912 1786.848022 C 1457.034912 1786.848022 1457.034912 1786.643066 1456.559448 1786.643066 C 1453.706665 1784.381836 1453.706787 1780.887085 1448.476563 1780.270508 C 1447.525635 1780.270508 1447.050293 1780.06543 1446.099365 1780.06543 C 1441.820068 1780.06543 1436.59021 1781.503906 1432.310913 1782.120483 C 1314.394409 1798.359497 1196.474854 1814.394409 1077.607422 1828.783325 C 1066.671509 1830.016724 1056.211792 1832.483154 1050.03064 1837.210938 C 1048.128784 1838.649902 1044.79834 1839.266846 1040.994629 1839.883423 C 1040.519165 1840.088989 1040.043701 1840.088501 1039.568237 1840.088501 C 1037.666382 1840.088501 1037.19104 1839.265259 1036.23999 1838.64856 C 1032.911743 1836.181885 1031.960938 1835.153687 1029.108032 1835.153687 C 1027.206177 1835.153687 1024.828979 1835.566162 1020.549744 1836.388428 C 1019.598755 1836.388428 1018.647949 1836.593018 1017.697021 1836.798584 C 1013.893188 1837.62085 1011.991516 1838.03125 1010.0896 1838.03125 C 1007.712219 1838.03125 1006.761475 1837.005127 1004.384094 1834.538452 C 999.629333 1830.221802 995.350464 1825.698242 990.595703 1821.175903 C 989.644775 1820.559326 989.169312 1819.942627 989.169312 1819.325928 C 989.169312 1818.503784 990.595581 1817.682495 993.923889 1817.065796 C 1009.139099 1813.982544 1025.303955 1812.13147 1040.994629 1810.075806 C 1047.175781 1809.459229 1052.883301 1808.227051 1058.113525 1806.788208 C 1244.497803 1756.427246 1422.802979 1700.719116 1600.153442 1644.191528 C 1612.991211 1640.286011 1625.828125 1636.17627 1639.141235 1632.476196 C 1641.043091 1631.859497 1642.469482 1631.653809 1643.895874 1631.653809 C 1645.797729 1631.653809 1647.224121 1632.269897 1648.650513 1633.708862 C 1653.405273 1639.053223 1659.110596 1644.192505 1664.34082 1649.331421 C 1664.816284 1649.742554 1665.291626 1650.358032 1665.291626 1650.769165 C 1665.291626 1651.180176 1664.816284 1651.797974 1662.914429 1652.208984 C 1624.401245 1662.898071 1588.740845 1675.230713 1551.654053 1686.741943 C 1525.027832 1694.964233 1498.875977 1703.392944 1472.72522 1711.409668 C 1467.970459 1712.848511 1466.544189 1714.493042 1466.544189 1716.959717 C 1466.544189 1728.470947 1468.446045 1739.776367 1468.921509 1751.287598 C 1469.396973 1752.72644 1470.3479 1753.342651 1471.774292 1753.342651 C 1472.72522 1753.342651 1474.151611 1752.930786 1475.577881 1752.72522 C 1519.796753 1746.558594 1564.49292 1740.392456 1609.187256 1734.842529 C 1622.024902 1733.197998 1634.386353 1731.555054 1647.699585 1730.527222 C 1648.650513 1730.527222 1650.076904 1730.319946 1651.027832 1730.319946 C 1655.307129 1730.319946 1658.15979 1731.348755 1660.537109 1733.609863 C 1665.29187 1738.748779 1670.99939 1743.88623 1676.229614 1749.025146 C 1676.705078 1749.641846 1677.180542 1750.053955 1677.180542 1750.465088 Z M 1670.999512 2093.951172 C 1670.999512 2096.623535 1669.570801 2099.501709 1668.619873 2102.173828 C 1662.914185 2117.796143 1655.782593 2133.622314 1650.552368 2149.244629 C 1645.797607 2162.605957 1641.994019 2176.173584 1638.665771 2189.534912 C 1636.764038 2196.729492 1636.764038 2203.71875 1635.337646 2210.70752 C 1634.862183 2213.174316 1634.386719 2215.641113 1634.386719 2218.107666 C 1634.386719 2222.013184 1635.337646 2225.507813 1636.288574 2229.207764 C 1636.764038 2230.441162 1637.239502 2231.467773 1638.665771 2232.495361 C 1647.699829 2238.662109 1654.355957 2245.447021 1660.537109 2252.230469 C 1661.012573 2252.847168 1661.488037 2253.25708 1661.963501 2253.668213 L 1661.963501 2254.080566 C 1661.963501 2254.902832 1661.012573 2255.723877 1659.586182 2256.340576 C 1658.635254 2256.751709 1657.684326 2256.750732 1657.208862 2256.750732 C 1655.782471 2256.750732 1654.831543 2256.751221 1653.880615 2256.545654 C 1650.076782 2255.723389 1647.699585 2254.697021 1645.322266 2253.258057 C 1643.895874 2252.435791 1642.944946 2251.613281 1641.994019 2250.585449 C 1638.190186 2245.6521 1627.730469 2244.418945 1617.745483 2243.185547 C 1604.432251 2241.746582 1590.642212 2241.130371 1576.853516 2241.130371 C 1569.245972 2241.130371 1562.114502 2241.334473 1554.506836 2241.745605 C 1521.699463 2243.389893 1489.366943 2246.473877 1457.034912 2250.790527 C 1435.163208 2253.668457 1413.765991 2256.956299 1392.845337 2260.450684 C 1367.1698 2264.767578 1341.971436 2269.701904 1316.771484 2274.84082 C 1279.209473 2282.651855 1242.119995 2290.669434 1205.033447 2299.508545 C 1163.192139 2309.375244 1121.825928 2320.267822 1081.886597 2331.779053 C 1064.615845 2336.625732 1047.345947 2341.391113 1030.444336 2346.389893 C 1031.741577 2347.080322 1032.464478 2348.176758 1033.387207 2348.841553 C 1040.994873 2355.625 1048.604126 2362.612549 1054.309814 2369.807129 C 1055.736206 2371.24585 1057.162476 2371.864258 1059.539917 2371.864258 C 1060.490845 2371.864258 1061.44165 2371.862549 1062.868164 2371.656982 C 1131.811523 2364.873535 1198.37793 2354.390381 1263.517456 2342.87915 C 1369.072266 2324.173828 1473.200806 2303.824463 1576.378052 2283.063477 C 1581.608276 2282.035645 1583.987671 2280.800781 1583.987671 2278.128418 L 1583.987671 2275.868408 C 1583.987671 2270.112793 1585.41394 2264.358154 1589.693237 2258.808105 C 1591.595093 2255.724609 1594.923218 2253.05127 1600.153442 2250.995605 C 1601.579834 2250.378906 1602.530762 2250.173096 1603.957153 2250.173096 C 1604.908081 2250.173096 1605.859009 2250.585449 1606.809937 2251.613037 L 1623.926514 2268.263184 C 1624.401978 2268.46875 1624.877441 2268.879639 1624.877441 2269.290771 C 1624.877441 2269.701904 1624.401978 2270.112305 1623.45105 2270.523438 C 1612.515137 2275.045654 1610.613525 2281.007813 1609.187256 2286.763428 C 1608.236328 2289.024658 1607.2854 2291.2854 1607.2854 2293.341064 C 1607.2854 2295.396484 1608.236328 2297.246094 1610.613525 2299.096191 C 1610.613525 2299.301758 1611.088989 2299.713135 1611.088989 2299.918701 C 1608.236328 2301.562988 1607.2854 2303.414063 1607.2854 2305.058594 C 1607.2854 2307.730957 1609.187256 2310.196533 1609.187256 2312.868652 L 1609.187256 2313.278809 C 1609.187256 2315.562012 1610.083252 2317.71582 1610.929077 2319.843018 C 1613.322754 2319.357422 1614.950195 2319.036133 1616.319092 2319.036133 C 1619.171875 2319.036133 1620.122803 2320.063477 1622.500122 2322.941406 C 1627.254883 2327.874756 1632.009277 2332.807617 1636.764038 2337.946533 C 1637.239502 2338.357666 1637.239502 2338.768066 1637.239502 2339.179199 C 1637.239502 2339.570068 1636.805664 2340.146729 1634.720215 2340.555908 C 1635.889771 2341.678955 1637.051025 2342.79834 1638.190308 2343.906738 C 1638.665771 2344.729004 1639.141235 2345.552002 1639.141235 2346.374023 C 1639.141235 2347.812988 1637.239502 2348.636475 1634.386719 2348.636475 C 1633.435791 2348.636475 1632.484863 2348.429688 1631.058472 2348.224121 C 1627.254761 2347.196289 1624.877441 2345.55127 1622.975586 2343.906738 C 1622.638306 2343.625 1622.304321 2343.343262 1621.968384 2343.061768 C 1540.521729 2359.083252 1459.053101 2374.92041 1377.155151 2390.56958 C 1367.170166 2392.419434 1357.186035 2394.27002 1347.20105 2395.914551 C 1343.872803 2396.53125 1342.446411 2397.353271 1342.446411 2398.792236 L 1341.02002 2439.492676 L 1341.02002 2439.902588 C 1341.02002 2441.135986 1341.495483 2441.342529 1342.921875 2441.342529 C 1343.872803 2441.342529 1345.299194 2440.930664 1346.725586 2440.725098 C 1400.453857 2431.88623 1454.183228 2423.048096 1507.911621 2414.414795 C 1513.141846 2413.592529 1515.994385 2412.974854 1518.371704 2412.974854 C 1521.700073 2412.974854 1522.650879 2414.208496 1525.503662 2417.497314 C 1530.258423 2422.430664 1534.537354 2427.157471 1538.81665 2431.885254 C 1539.292114 2432.296387 1539.767578 2432.708984 1539.767578 2433.120117 C 1539.767578 2433.53125 1538.81665 2433.941406 1536.914795 2434.352539 C 1489.367432 2441.958252 1442.294434 2449.769287 1394.747192 2457.580322 C 1318.671631 2469.913818 1242.121094 2482.453125 1166.520996 2495.40332 C 1142.747437 2499.514404 1119.448608 2503.830078 1096.150391 2508.763428 C 1093.297729 2509.380127 1091.395874 2509.791016 1089.969482 2509.791016 C 1087.592163 2509.791016 1086.641235 2508.763916 1084.73938 2506.708496 C 1079.984619 2501.364014 1075.230225 2496.020264 1070 2490.675781 C 1069.524536 2490.059082 1069.049072 2489.648682 1069.049072 2489.443115 C 1069.049072 2488.826416 1070 2488.414307 1072.852783 2488.003174 C 1086.166138 2485.536621 1099.00293 2482.659668 1112.316162 2480.192871 C 1169.848145 2469.709473 1228.332153 2460.253906 1286.3396 2450.592773 C 1292.045288 2449.770508 1293.947021 2448.742432 1293.947021 2446.070068 C 1294.422485 2433.53125 1295.373413 2420.991211 1296.324341 2408.452393 L 1296.324341 2405.574707 C 1272.550659 2409.686035 1250.205078 2413.797363 1227.85791 2417.497314 C 1184.589966 2424.691895 1140.844727 2431.680664 1097.576782 2438.875244 C 1082.837158 2441.341797 1068.573975 2444.219971 1054.309814 2447.097656 C 1052.407837 2447.508789 1050.981689 2447.712891 1050.03064 2447.712891 C 1047.65332 2447.712891 1046.224731 2447.097168 1044.79834 2445.452637 C 1040.519043 2439.902832 1035.289185 2434.559326 1030.05896 2429.214844 C 1029.108032 2428.392578 1028.632568 2427.568604 1028.632568 2427.157715 C 1028.632568 2426.335449 1029.583496 2425.719971 1033.862671 2425.719971 C 1034.813721 2425.719971 1035.764526 2425.513184 1036.715454 2425.307617 C 1046.734863 2423.244873 1056.874146 2421.312988 1067.095459 2419.466797 C 1061.594971 2414.288574 1056.509766 2409.114014 1050.981567 2404.134766 C 1050.03064 2403.107178 1049.555176 2402.080078 1049.555176 2401.052246 C 1049.555176 2400.641113 1050.03064 2400.023926 1050.03064 2399.407227 C 1050.506104 2398.174072 1050.981567 2397.147949 1050.981567 2395.914551 C 1050.981567 2393.036865 1049.079834 2390.157471 1045.751465 2387.279785 C 1041.947632 2383.785156 1038.141968 2379.879639 1034.338135 2376.179443 C 1033.387207 2375.562988 1032.911743 2374.946777 1032.911743 2374.124512 C 1032.911743 2373.507813 1033.387207 2372.891113 1034.338135 2372.274414 C 1035.764526 2371.041016 1036.715454 2370.424316 1038.141846 2370.424316 C 1039.092773 2370.424316 1040.519043 2370.834717 1042.896484 2371.656982 C 1039.568115 2364.051514 1033.862793 2356.858643 1027.681641 2349.664063 C 1027.371094 2349.126953 1026.454346 2348.414063 1025.854248 2347.755371 C 1017.799683 2350.169434 1009.836487 2352.644043 1002.006775 2355.214111 C 995.350159 2357.269775 989.644958 2359.736328 982.988281 2361.791748 C 980.610901 2362.614014 979.184692 2363.229492 977.75824 2363.229492 C 976.331848 2363.229492 975.38092 2362.612793 973.954529 2361.379395 C 967.773376 2355.829346 962.065857 2350.279297 956.360168 2344.729248 C 955.884644 2344.318115 955.409241 2343.907715 955.409241 2343.496582 C 955.409241 2342.879883 955.886902 2342.467773 957.788818 2342.056641 C 967.773804 2340.001221 974.905151 2336.301758 983.939209 2333.424072 C 998.678894 2328.901855 1013.892883 2324.380371 1029.583496 2320.063721 C 1051.455322 2313.691406 1073.803223 2307.730225 1095.674927 2301.563477 C 1120.399536 2294.780273 1145.124756 2288.407715 1169.849243 2282.240967 C 1205.984985 2273.607422 1242.596558 2265.38623 1279.683228 2257.780518 C 1307.736084 2251.819336 1335.789185 2246.268799 1364.793091 2241.335449 C 1392.845947 2236.4021 1421.374756 2231.674316 1450.378418 2228.385254 C 1486.514282 2224.068604 1522.650146 2220.572754 1558.786011 2220.572754 L 1564.491577 2220.572754 C 1580.657715 2220.77832 1595.874023 2221.806641 1610.138184 2224.067871 C 1611.088989 2224.273438 1612.039917 2224.480225 1613.466309 2224.480225 C 1613.941772 2224.480225 1614.8927 2224.273438 1615.843628 2224.067871 C 1614.417236 2220.367676 1612.515381 2216.463623 1611.088989 2212.352539 C 1609.66272 2208.447021 1609.187256 2204.33374 1609.187256 2200.222656 C 1609.187256 2193.850342 1610.613525 2187.272705 1611.564453 2180.694824 C 1612.990845 2174.733887 1614.8927 2168.773438 1615.843628 2162.812012 C 1618.696411 2149.656494 1623.926392 2136.500488 1628.205688 2123.13916 C 1630.107544 2118.82251 1632.009399 2114.300049 1633.911255 2109.366699 C 1628.68103 2109.983398 1625.828369 2111.423096 1622.975586 2112.656494 C 1596.824585 2122.112061 1570.673096 2131.362793 1542.144897 2139.379395 C 1523.126099 2144.518311 1503.630493 2149.040771 1483.185303 2153.151855 C 1469.396606 2155.824219 1455.608887 2158.291016 1441.82019 2160.552002 C 1422.801392 2163.635254 1402.830322 2166.100586 1382.860596 2166.717285 L 1377.630615 2166.717285 C 1370.022949 2166.717285 1363.842163 2165.690186 1360.98938 2161.784668 C 1357.185669 2156.851318 1351.480347 2152.32959 1346.250122 2147.601807 C 1345.774658 2147.39624 1345.774658 2146.983154 1345.774658 2146.572021 L 1345.774658 2146.162109 C 1347.20105 2145.545166 1348.627441 2145.544434 1350.053833 2145.544434 L 1351.955688 2145.544434 C 1355.283813 2145.75 1358.612061 2145.957031 1361.940308 2145.957031 C 1371.449829 2145.957031 1381.43396 2144.929688 1390.943481 2143.901855 C 1419.947266 2140.818359 1448.00061 2135.679199 1475.102417 2130.12915 C 1505.057129 2123.756836 1533.585938 2115.739014 1560.212402 2106.489014 C 1577.804932 2100.322266 1595.873901 2094.156738 1612.990845 2087.578613 C 1624.402222 2083.467773 1634.861816 2078.73999 1643.42041 2073.601074 C 1645.322266 2072.367676 1646.748657 2071.750977 1648.175049 2071.750977 C 1649.60144 2071.750977 1650.552368 2072.368164 1651.97876 2073.395996 C 1658.159912 2078.946045 1664.340576 2084.28833 1669.570801 2090.043945 C 1670.521729 2091.277344 1670.999512 2092.718018 1670.999512 2093.951172 Z M 1662.914429 1790.960449 C 1662.914429 1792.60498 1661.012573 1793.83728 1658.635254 1795.070679 C 1651.978638 1798.77063 1643.89624 1801.855347 1635.81311 1804.733154 C 1615.843384 1811.927612 1595.872437 1818.915649 1578.755371 1827.343384 C 1573.525146 1829.810059 1568.770874 1832.481445 1564.016113 1835.153687 C 1543.570923 1846.048096 1533.111084 1858.177002 1533.111084 1870.921387 C 1533.111084 1876.677002 1535.012817 1882.637939 1539.292114 1888.599121 C 1544.046875 1894.971436 1547.85022 1901.75415 1551.654053 1908.331909 C 1552.129517 1909.154175 1552.60498 1909.976685 1553.080444 1911.004395 C 1553.080444 1911.210083 1552.129517 1911.826416 1551.654053 1912.031982 L 1550.703125 1912.031982 C 1550.227661 1912.031982 1549.276733 1911.827393 1548.80127 1911.621826 C 1547.850342 1911.005127 1546.899414 1910.18335 1545.948486 1909.566772 C 1529.307007 1895.383301 1520.74939 1880.170776 1512.66626 1864.753906 C 1510.28894 1860.231689 1509.338013 1856.122314 1509.338013 1852.011108 C 1509.338013 1836.388794 1525.027832 1823.026733 1549.276733 1810.693237 C 1559.261719 1805.759888 1570.199097 1801.031616 1581.13501 1796.098145 C 1507.912476 1804.937134 1436.589233 1816.243164 1366.219482 1828.370972 C 1381.43457 1828.576538 1396.650879 1828.987183 1411.866089 1830.426025 C 1428.983154 1832.276123 1442.295532 1835.977417 1448.476563 1843.788574 C 1451.80481 1847.899658 1456.559326 1852.01062 1460.838623 1855.91626 C 1463.215942 1858.177246 1464.16687 1860.232666 1464.16687 1862.493896 C 1464.16687 1864.754883 1463.215942 1867.015381 1460.838623 1869.276489 C 1455.132935 1874.826538 1446.575073 1879.554932 1436.590088 1883.871582 C 1409.488281 1896.204956 1376.680542 1905.044556 1342.921875 1913.266846 C 1286.34082 1927.244629 1226.430298 1938.137939 1166.520996 1949.032349 C 1137.041748 1954.376709 1108.03772 1959.7229 1080.460205 1966.917358 C 1069.524292 1969.795166 1059.064697 1972.876587 1050.506104 1976.987793 C 1046.702393 1978.632202 1044.79834 1980.277588 1044.79834 1982.127686 C 1044.79834 1983.360962 1045.273804 1984.389404 1047.175659 1985.622559 C 1048.126587 1986.033813 1049.555176 1986.855469 1049.555176 1987.677734 C 1049.555176 1988.088867 1049.077515 1988.499268 1047.175659 1988.910278 C 1046.224731 1989.115845 1045.749268 1989.117676 1044.79834 1989.117676 C 1042.421021 1989.117676 1040.043823 1988.29541 1038.61731 1987.267578 C 1037.666382 1986.445313 1037.19104 1985.622314 1036.23999 1984.800171 C 1031.485352 1980.483398 1027.206421 1975.96167 1022.451599 1971.64502 C 1020.074219 1969.589355 1019.123413 1967.737549 1019.123413 1965.887573 C 1019.123413 1963.009766 1021.976013 1960.339478 1026.730835 1957.667236 C 1034.338379 1953.761719 1043.849365 1950.677124 1054.309814 1948.004883 C 1081.887329 1940.399292 1111.842041 1934.849609 1141.796997 1929.299561 C 1203.608154 1917.993896 1265.42041 1906.893311 1324.378906 1892.50415 C 1353.858276 1885.309692 1382.386841 1877.294189 1407.11145 1867.016357 C 1416.620972 1863.316406 1424.703369 1859.204102 1431.835449 1854.476318 C 1433.261841 1853.654053 1433.737305 1853.037964 1433.737305 1852.421265 C 1433.737305 1851.598999 1431.835449 1851.189087 1428.507202 1850.983643 C 1415.669434 1849.750244 1403.305786 1849.131348 1390.468018 1849.131348 C 1380.483032 1849.131348 1370.498901 1849.542725 1360.513916 1849.953735 C 1276.355469 1854.064941 1195.999146 1865.371216 1116.119873 1877.499023 C 1109.463257 1878.732422 1103.282471 1880.172119 1096.625854 1881.816406 C 1093.297729 1882.844238 1089.494019 1883.871582 1084.73938 1883.871582 C 1083.78833 1883.871582 1082.837524 1883.87207 1081.411133 1883.666504 L 1080.460205 1883.666504 C 1077.607422 1883.666504 1073.328369 1884.694336 1070.475464 1885.516602 C 1069.049072 1885.722168 1068.098267 1885.926636 1067.147217 1885.926636 C 1065.245483 1885.926636 1064.294556 1885.309448 1062.868164 1884.281738 C 1057.637939 1878.937256 1052.881348 1873.800293 1047.175659 1868.661377 C 1046.224731 1868.044678 1045.751465 1867.427979 1045.751465 1866.811279 C 1045.751465 1865.989014 1047.177856 1865.370605 1050.506104 1864.753906 C 1083.313843 1859.61499 1113.743896 1852.831665 1145.125244 1846.253784 C 1260.664551 1821.998047 1379.059204 1800.416504 1501.730591 1783.355347 C 1537.390869 1778.216431 1573.051392 1773.28125 1609.66272 1770.197876 C 1616.319214 1769.581177 1622.5 1769.17041 1629.156616 1769.17041 L 1633.435791 1769.17041 C 1639.141479 1769.375854 1642.944946 1770.199219 1644.846802 1772.460327 C 1650.55249 1778.010254 1655.782349 1783.353638 1661.488037 1788.69812 C 1662.438965 1789.520264 1662.914429 1790.34375 1662.914429 1790.960449 Z M 1661.012573 1564.640625 C 1661.012573 1565.463013 1660.061646 1566.285889 1658.15979 1567.108154 C 1628.680664 1579.647217 1595.872559 1590.131226 1561.638794 1600.203369 C 1421.850586 1641.520386 1277.779663 1679.752686 1123.727173 1710.997314 C 1117.546143 1712.230591 1111.84082 1713.877075 1105.184204 1713.877075 C 1103.282349 1713.877075 1101.380493 1713.670288 1099.478638 1713.464722 L 1098.52771 1713.464722 C 1096.150391 1713.464722 1097.101318 1714.69812 1096.625854 1715.314697 C 1092.822266 1728.676025 1086.641357 1741.83252 1078.55835 1754.782593 C 1077.131958 1757.043701 1075.705566 1759.30481 1073.803711 1762.182617 C 1090.445313 1756.838135 1105.659302 1751.904053 1120.399048 1746.765015 C 1121.825439 1746.354004 1122.776245 1745.942627 1123.251709 1745.942627 C 1124.202637 1745.942627 1124.678101 1746.352905 1125.629028 1747.175171 C 1131.810303 1752.930664 1137.5177 1758.687134 1143.698853 1764.442749 C 1144.174316 1764.853882 1144.174316 1765.264771 1144.174316 1765.470337 C 1144.174316 1766.703735 1141.796997 1767.320557 1139.419678 1768.142822 C 1126.106445 1772.459473 1112.79187 1776.775757 1099.478638 1781.297974 C 1080.935181 1787.875854 1064.770386 1795.481567 1049.079712 1803.498291 C 1043.849487 1806.17041 1040.994751 1807.40332 1038.61731 1807.40332 C 1036.23999 1807.40332 1034.813721 1805.554077 1031.485352 1802.470703 C 1027.681519 1798.565063 1023.878174 1794.660522 1019.598877 1790.960449 C 1017.697021 1789.521606 1016.746094 1788.081909 1016.746094 1786.643066 C 1016.746094 1785.615234 1017.697021 1784.381348 1018.647949 1783.148071 C 1027.681885 1771.842407 1037.192993 1760.331421 1045.751465 1748.82019 C 1062.393066 1726.414551 1071.901733 1703.5979 1077.131958 1680.164429 C 1081.411255 1661.664307 1084.263916 1643.164429 1084.263916 1624.45874 L 1084.263916 1620.141235 C 1083.78833 1613.974487 1082.837524 1607.602661 1081.411133 1601.436035 C 1079.984619 1597.735962 1076.181152 1594.242798 1072.852783 1590.748291 C 1071.279419 1589.115845 1069.499268 1587.572021 1067.785034 1586.000366 C 1066.006226 1587.244385 1064.210083 1588.483765 1062.3927 1589.718506 C 1058.588867 1592.596313 1053.834473 1595.269775 1048.128784 1597.530884 C 1045.276001 1598.558716 1043.371948 1598.970825 1041.470093 1598.970825 C 1039.092651 1598.970825 1037.19104 1598.148315 1035.289063 1596.29834 C 1029.583374 1590.953857 1023.878174 1585.40332 1018.172485 1579.853149 C 1016.746033 1578.414307 1016.27063 1576.974487 1016.27063 1575.535767 C 1016.27063 1573.480103 1017.221497 1571.425537 1018.172485 1569.575562 C 1025.780029 1549.225342 1028.632568 1528.463257 1028.632568 1507.907471 L 1028.632568 1499.27478 C 1027.681641 1485.502441 1024.829102 1471.935669 1018.172485 1458.574463 L 1018.172485 1457.957031 C 1018.172485 1457.134766 1017.221558 1456.313965 1017.221558 1455.491821 C 1017.221558 1454.875122 1017.697021 1454.462524 1019.123413 1454.256958 C 1019.598877 1454.256958 1020.074219 1454.05188 1020.549744 1454.05188 C 1023.402588 1454.05188 1023.402527 1456.106689 1024.353516 1457.134521 C 1027.681763 1459.601196 1029.583496 1462.27478 1032.911743 1464.946899 C 1043.372192 1473.785889 1045.276001 1483.446167 1048.128784 1493.1073 C 1051.457153 1504.412964 1052.883423 1515.720093 1052.883423 1526.820068 C 1052.883423 1537.7146 1051.457153 1548.403442 1050.03064 1559.297974 C 1050.03064 1559.50354 1049.555176 1559.914917 1049.555176 1560.120361 C 1049.555176 1560.737183 1050.03064 1561.353882 1050.981567 1561.970459 C 1054.309937 1559.298218 1058.113403 1556.625122 1061.441772 1553.952881 C 1090.445801 1531.136108 1118.974243 1508.31897 1139.419678 1483.652222 C 1142.272461 1480.157837 1144.174316 1476.66394 1145.600708 1473.169556 C 1146.076172 1471.730591 1147.0271 1470.497314 1148.453491 1469.469482 C 1149.404419 1468.647217 1150.830811 1468.234619 1151.781738 1468.234619 C 1152.732666 1468.234619 1153.683594 1468.647217 1154.634521 1469.469482 C 1160.815674 1475.430664 1166.996338 1481.186035 1172.702026 1487.147217 C 1173.17749 1487.763916 1173.652954 1488.175415 1173.652954 1488.792114 C 1173.652954 1490.025391 1172.226563 1491.051514 1171.275635 1492.284912 C 1169.373779 1495.16272 1167.947388 1498.452759 1167.947388 1501.947388 C 1167.947388 1510.786133 1176.029907 1520.445923 1194.573242 1526.612793 C 1220.248779 1535.040527 1247.826416 1538.947754 1277.781372 1538.947754 C 1286.81543 1538.947754 1296.324097 1538.742432 1305.833618 1537.920166 C 1347.674683 1534.836914 1384.288452 1526.408447 1418.522583 1515.925049 C 1493.171265 1493.519287 1555.459229 1465.769043 1601.10437 1431.646606 C 1614.417603 1421.779907 1623.926392 1411.297363 1627.254761 1399.786133 L 1627.254761 1398.55127 C 1627.254761 1395.673584 1624.4021 1393.823242 1617.745483 1392.178711 C 1602.530273 1388.890015 1586.838623 1387.65625 1570.672485 1387.65625 C 1564.491455 1387.65625 1558.786133 1387.863159 1552.60498 1388.068604 C 1507.435303 1389.918579 1467.971069 1398.140259 1431.835449 1409.651367 C 1403.307373 1418.695923 1375.729248 1428.562256 1350.529297 1439.456787 C 1342.921753 1442.540161 1335.314575 1445.830566 1329.133423 1449.941772 C 1327.707031 1450.55835 1326.756104 1450.969238 1326.28064 1450.969238 C 1325.329712 1450.969238 1324.378906 1450.556641 1323.427979 1449.734375 C 1317.72229 1443.978882 1311.539307 1438.429199 1305.833618 1432.87915 C 1305.358154 1432.46814 1305.358154 1431.852661 1305.358154 1431.441528 C 1305.358154 1431.030396 1305.833618 1430.41333 1306.784546 1429.796631 C 1308.686401 1428.563232 1310.588257 1427.329224 1312.965454 1426.301636 C 1352.429077 1408.212524 1395.699341 1392.179932 1445.623901 1379.640991 C 1476.053833 1372.0354 1509.337402 1367.92334 1544.522095 1367.100952 L 1552.129517 1367.100952 C 1565.442749 1367.100952 1578.28186 1367.923462 1590.644165 1369.773438 C 1603.957397 1371.828979 1614.892578 1375.119019 1622.024658 1380.463501 C 1633.436035 1388.685791 1643.420288 1397.523315 1648.650513 1406.978882 C 1650.552368 1410.062256 1651.027832 1412.94104 1651.027832 1415.818848 C 1651.027832 1424.041138 1644.846924 1431.852905 1637.714966 1439.664063 C 1621.548828 1455.492065 1599.200562 1469.674072 1573.525269 1482.829712 C 1526.929199 1507.290894 1473.20166 1528.464355 1409.48877 1544.497803 C 1381.911377 1551.281128 1352.907349 1556.62439 1321.050659 1558.88562 C 1312.967529 1559.502319 1304.882935 1559.708008 1296.799805 1559.708008 C 1248.302124 1559.708008 1201.230347 1549.635986 1176.981201 1528.052612 C 1171.275513 1522.913696 1166.045776 1517.56897 1160.815552 1512.430054 C 1159.864624 1511.607788 1159.38916 1510.579712 1157.011841 1509.757568 C 1149.879639 1517.77417 1141.795044 1525.584839 1133.23645 1533.190308 C 1114.025879 1550.161743 1094.447998 1566.973999 1071.926636 1583.071045 C 1075.02771 1584.765503 1077.506836 1586.726929 1079.984741 1588.690918 C 1101.856567 1605.340942 1108.512451 1623.018799 1108.512451 1641.519043 L 1108.512451 1645.219116 C 1107.561523 1658.991333 1106.610596 1672.764526 1103.757813 1686.536865 C 1103.757813 1687.153687 1103.282349 1687.97522 1103.282349 1688.592041 C 1103.282349 1689.003052 1103.757813 1689.620239 1104.233276 1690.236938 C 1109.938965 1689.003662 1115.168823 1687.97522 1120.874512 1686.741943 C 1278.730591 1654.05835 1427.080566 1614.181274 1570.672485 1570.603149 C 1593.494995 1563.614258 1615.36792 1555.803711 1635.337646 1547.170288 C 1637.714966 1546.142456 1639.616699 1545.525269 1640.567627 1545.525269 C 1641.994019 1545.525269 1642.944946 1546.3479 1644.846802 1548.197876 C 1650.077026 1552.925659 1654.831421 1557.8573 1660.061646 1562.790649 C 1661.012573 1563.407349 1661.012573 1564.024048 1661.012573 1564.640625 Z M 1641.043091 2768.793701 C 1641.043091 2769.615967 1639.616699 2770.437256 1636.288574 2771.053955 C 1562.114624 2786.881836 1487.466309 2802.505127 1412.341553 2817.921875 C 1360.514893 2828.405273 1309.162964 2839.093994 1260.189209 2852.249756 C 1236.415649 2858.62207 1214.067749 2866.022217 1193.622314 2874.449951 C 1184.588257 2878.149902 1177.932251 2880 1170.324707 2880 C 1164.618896 2880 1157.963013 2878.971191 1149.404419 2876.709961 C 1125.155273 2870.543457 1101.856689 2863.761963 1075.230103 2859.239746 C 1061.441406 2856.772949 1046.700562 2854.922607 1031.485352 2854.717041 C 1027.206055 2854.717041 1024.828979 2853.894043 1022.927063 2852.249756 C 1017.696838 2846.905273 1012.467041 2841.561523 1006.761353 2836.217041 C 1006.285889 2835.805908 1005.810486 2835.188721 1005.810486 2834.572021 C 1005.810486 2834.366455 1005.810364 2833.955566 1006.761353 2833.544434 C 1007.71228 2833.338867 1008.187683 2833.13208 1009.138672 2833.13208 C 1010.0896 2833.13208 1011.040466 2833.543945 1012.466919 2833.749512 C 1017.221619 2834.777344 1022.451416 2834.365967 1029.583496 2834.7771 C 1025.779785 2831.077148 1022.45166 2827.993408 1019.123413 2824.70459 C 1018.172485 2823.882324 1017.697083 2822.649658 1017.221558 2821.621826 L 1017.221558 2821.416748 C 1017.221558 2821.005615 1017.697021 2820.800293 1018.647949 2820.38916 L 1019.598877 2820.38916 C 1020.549866 2820.38916 1021.025208 2820.593262 1021.500671 2821.004395 C 1023.878052 2823.265625 1027.681519 2824.089355 1031.485352 2824.089355 C 1034.813721 2824.089355 1038.141846 2823.677979 1040.994629 2823.266846 C 1054.783325 2821.827881 1067.146973 2819.154053 1079.984741 2816.481934 C 1200.754883 2791.815186 1319.148315 2764.888184 1430.884521 2732.615967 C 1476.530029 2719.460205 1519.797241 2705.275879 1556.884155 2687.5979 C 1564.967285 2683.692383 1573.525146 2679.581787 1580.657227 2674.442871 C 1566.86853 2674.854004 1554.50708 2676.088379 1542.620361 2677.732666 C 1498.876709 2683.077148 1457.035889 2691.298828 1415.194336 2699.31543 C 1357.661987 2710.621094 1300.129272 2721.926514 1246.400879 2736.520996 C 1205.510132 2747.415527 1166.044189 2759.338379 1129.432739 2773.316406 C 1118.97229 2777.42749 1108.512695 2781.743652 1099.954102 2786.471436 C 1095.674927 2788.732666 1092.346802 2791.199219 1091.395874 2793.871582 C 1091.395874 2794.693848 1090.92041 2795.516602 1089.018555 2795.516602 L 1088.543091 2795.516602 C 1087.116699 2795.516602 1086.641235 2794.695068 1085.690308 2794.283936 L 1068.573608 2777.016357 C 1068.098145 2776.399658 1067.622681 2775.988037 1067.622681 2775.371338 C 1067.622681 2774.137939 1068.573608 2772.904297 1070 2771.876465 C 1073.803833 2767.970703 1079.984619 2764.887207 1086.641235 2761.803711 C 1110.414917 2751.114746 1137.517212 2742.071777 1165.094604 2733.438477 C 1225.9552 2714.321533 1292.045776 2699.109131 1360.038452 2685.748047 C 1407.110352 2676.498047 1453.707886 2667.042236 1502.206055 2659.847656 C 1521.700439 2656.969971 1541.193481 2654.709717 1561.638794 2653.887451 C 1564.016113 2653.681885 1566.868896 2653.682373 1569.246216 2653.682373 C 1573.525513 2653.682373 1577.331177 2653.886963 1581.610474 2654.092529 C 1589.217896 2654.709229 1594.923218 2656.559326 1598.251587 2659.642578 C 1603.481812 2665.192627 1609.187012 2670.537598 1614.8927 2676.087646 C 1616.319092 2677.526611 1617.27002 2678.966309 1617.27002 2680.405273 C 1617.27002 2682.255127 1615.843628 2684.310303 1613.941772 2686.1604 C 1607.76062 2692.532471 1598.251831 2698.081299 1587.791382 2703.425781 C 1551.655518 2721.514648 1508.861328 2736.109863 1464.16687 2749.471191 C 1378.106201 2774.960205 1286.815063 2796.748779 1193.622314 2817.304443 C 1156.060059 2825.526611 1118.022583 2833.955078 1078.55835 2841.149658 C 1077.607422 2841.355225 1077.13208 2841.561035 1075.230103 2841.972168 C 1098.052856 2846.905518 1118.498779 2852.660889 1139.895142 2857.799805 C 1144.174316 2858.827637 1148.453491 2859.239746 1152.257202 2859.239746 C 1156.536499 2859.239746 1161.290771 2858.621826 1165.094604 2856.977295 C 1223.577881 2832.310547 1296.324951 2817.510498 1368.596802 2802.299072 C 1447.525391 2785.64917 1527.881226 2769.821045 1606.809937 2752.348633 C 1612.991089 2750.909668 1616.319092 2750.293457 1619.171875 2750.293457 C 1622.500122 2750.293457 1624.401978 2751.937988 1628.205688 2755.84375 L 1639.616699 2766.943848 C 1640.567627 2767.560547 1641.043091 2768.177002 1641.043091 2768.793701 Z M 1639.141235 2671.770264 C 1639.141235 2673.209229 1637.239502 2674.032715 1634.386719 2674.032715 C 1633.435791 2674.032715 1632.484863 2673.825928 1631.058472 2673.620361 C 1627.254761 2672.592529 1624.877441 2670.949463 1622.975586 2669.305176 C 1609.18689 2657.793945 1596.349854 2646.28125 1590.168701 2633.742432 C 1589.217773 2631.892334 1587.791382 2631.2771 1585.889526 2631.2771 C 1584.463135 2631.2771 1583.034546 2631.686279 1580.657227 2632.097412 C 1478.906006 2652.241943 1377.155396 2672.386475 1273.502197 2690.475586 C 1208.362427 2701.78125 1142.747437 2712.060791 1073.803711 2718.433105 C 1070.475464 2718.638672 1069.524536 2719.253662 1069.524536 2720.075928 C 1069.524536 2720.487061 1069.524536 2721.104736 1070 2721.515625 C 1071.901978 2727.27124 1074.754639 2733.027344 1074.754639 2738.988281 C 1074.754639 2741.043945 1074.279175 2742.893066 1073.803711 2744.948486 C 1073.328247 2745.770752 1074.279297 2747.005371 1071.901855 2747.210938 L 1071.426392 2747.210938 C 1068.573608 2747.210938 1068.098145 2746.183105 1067.622681 2745.36084 C 1061.917114 2740.016602 1056.687256 2734.672119 1050.981567 2729.533203 C 1050.03064 2728.505371 1049.555176 2727.476074 1049.555176 2726.448486 C 1049.555176 2726.037354 1050.03064 2725.422363 1050.03064 2724.805664 C 1050.506104 2723.572266 1050.981567 2722.543945 1050.981567 2721.310791 C 1050.981567 2718.432861 1049.079834 2715.553467 1045.751465 2712.675781 C 1041.947632 2709.181396 1038.141968 2705.275635 1034.338135 2701.575684 C 1033.387207 2700.958984 1032.911743 2700.342773 1032.911743 2699.520508 C 1032.911743 2698.903809 1033.387207 2698.287109 1034.338135 2697.670654 C 1035.764526 2696.437256 1036.715454 2695.820557 1038.141846 2695.820557 C 1039.092773 2695.820557 1040.519043 2696.233154 1042.896484 2697.05542 C 1039.568115 2689.449707 1033.862793 2682.254639 1027.681641 2675.060303 C 1027.206177 2674.238037 1025.304443 2673.004883 1025.304443 2672.182617 C 1025.304443 2671.771484 1025.304321 2671.360596 1026.730835 2671.155029 L 1027.681641 2671.155029 C 1031.01001 2671.155029 1031.960815 2673.209961 1033.387207 2674.237793 C 1040.994873 2681.020996 1048.604126 2688.010986 1054.309814 2695.205322 C 1055.736206 2696.644287 1057.162476 2697.260498 1059.539917 2697.260498 C 1060.490845 2697.260498 1061.44165 2697.260986 1062.868164 2697.05542 C 1131.811768 2690.271973 1198.377808 2679.788574 1263.517456 2668.277588 C 1369.07251 2649.572021 1473.200439 2629.220703 1576.378052 2608.459473 C 1581.608276 2607.431641 1583.987671 2606.199219 1583.987671 2603.526855 L 1583.987671 2601.264404 C 1583.987671 2595.508789 1585.41394 2589.75415 1589.693237 2584.204102 C 1591.595093 2581.12085 1594.923218 2578.447266 1600.153442 2576.391846 C 1601.579834 2575.775146 1602.530762 2575.569336 1603.957153 2575.569336 C 1604.908081 2575.569336 1605.859009 2575.981445 1606.809937 2577.009277 L 1623.926514 2593.659424 C 1624.401978 2593.86499 1624.877441 2594.275879 1624.877441 2594.687012 C 1624.877441 2595.098145 1624.401978 2595.508301 1623.45105 2595.919434 C 1612.515137 2600.44165 1610.613525 2606.404053 1609.187256 2612.159668 C 1608.236328 2614.420654 1607.2854 2616.681641 1607.2854 2618.737061 C 1607.2854 2620.792725 1608.236328 2622.642334 1610.613525 2624.492188 C 1610.613525 2624.697754 1611.088989 2625.109131 1611.088989 2625.314697 C 1608.236328 2626.959229 1607.2854 2628.810303 1607.2854 2630.45459 C 1607.2854 2633.126953 1609.187256 2635.592529 1609.187256 2638.264893 L 1609.187256 2638.677246 C 1609.187256 2641.554932 1610.613525 2644.225342 1611.564453 2646.897461 C 1612.515381 2648.541992 1611.564331 2650.392578 1617.27002 2650.392578 C 1618.696411 2650.392578 1619.647339 2651.625977 1620.598267 2652.242676 C 1626.303955 2657.998047 1632.484741 2663.755127 1638.190308 2669.305176 C 1638.665771 2670.127197 1639.141235 2670.947998 1639.141235 2671.770264 Z M 1634.386719 2547.203857 C 1634.386719 2547.61499 1633.911255 2548.025879 1631.058472 2548.231445 C 1612.039673 2549.259033 1594.445923 2552.753174 1576.378052 2555.836426 C 1496.023193 2569.197754 1416.620117 2584.61499 1337.216309 2599.209473 C 1328.182251 2600.85376 1319.622314 2602.498047 1311.063721 2603.937012 C 1308.210938 2604.348145 1307.26001 2604.760254 1307.26001 2605.376953 C 1307.26001 2605.788086 1307.735474 2606.402832 1308.210938 2607.019531 C 1316.294067 2614.830811 1324.378662 2622.643066 1331.035278 2630.659668 C 1335.790039 2636.826416 1339.593628 2642.992676 1341.970947 2649.36499 C 1341.970947 2649.981689 1342.446411 2650.598389 1342.446411 2651.215088 C 1342.446411 2652.037109 1341.970947 2652.858887 1339.593628 2653.27002 C 1338.6427 2653.475586 1337.691772 2653.682373 1336.740845 2653.682373 C 1334.363525 2653.682373 1332.46167 2652.859131 1330.559814 2652.242676 C 1325.32959 2650.392578 1320.575317 2648.337891 1315.820557 2646.282471 C 1293.94873 2636.826904 1270.650024 2627.987549 1246.876343 2619.55957 C 1243.072632 2618.120605 1239.744385 2617.504639 1235.940674 2617.504639 C 1233.563354 2617.504639 1231.186035 2617.708496 1228.333374 2618.119629 C 1177.933228 2626.753174 1127.056641 2634.564941 1074.279175 2640.11499 C 1071.426392 2640.525879 1069.049072 2640.732422 1067.622681 2640.732422 C 1063.818848 2640.732422 1062.3927 2639.70459 1059.539917 2637.032227 C 1054.785156 2632.304443 1050.028442 2627.370117 1045.273804 2622.642334 C 1044.322754 2621.820068 1043.371948 2620.997559 1043.371948 2619.969727 C 1043.371948 2619.558594 1044.322754 2618.737061 1045.273804 2618.737061 C 1045.749268 2618.737061 1046.226929 2618.736572 1046.702393 2618.942139 C 1048.60437 2619.764404 1050.03064 2619.969727 1051.932495 2619.969727 C 1054.309937 2619.969727 1057.162476 2619.35498 1059.539917 2619.149414 C 1101.381348 2614.421631 1142.74707 2608.459717 1183.162231 2601.881836 C 1184.588623 2601.67627 1186.015015 2601.677002 1186.965942 2600.649414 C 1181.73584 2599.416016 1176.505859 2597.770264 1171.275635 2596.536865 C 1135.615356 2586.875732 1098.528564 2578.654053 1058.113525 2573.104004 C 1052.407837 2572.281738 1046.700317 2571.458984 1040.519165 2571.458984 C 1037.666382 2571.458984 1034.338257 2571.665527 1031.485352 2572.07666 C 1030.534424 2572.07666 1030.05896 2572.281738 1029.108032 2572.281738 C 1027.206177 2572.281738 1025.304443 2571.665039 1024.353516 2570.431641 C 1019.12323 2565.087158 1013.417969 2559.535889 1007.71228 2554.191406 C 1007.236816 2553.574707 1006.761353 2553.165527 1006.761353 2552.548828 C 1006.761353 2551.726563 1008.187683 2551.108887 1011.515991 2551.108887 C 1020.074524 2550.697754 1026.730591 2548.643066 1032.911743 2546.17627 C 1053.357178 2538.365234 1075.229614 2531.169922 1097.101318 2524.181152 C 1108.988159 2520.275391 1118.97229 2515.546631 1126.104492 2509.791016 C 1127.05542 2509.174316 1128.006348 2508.148438 1129.908203 2508.148438 C 1131.810059 2508.354004 1132.285522 2509.174316 1132.760986 2509.791016 L 1149.879883 2526.441162 C 1150.355347 2526.852295 1150.355347 2527.264893 1150.355347 2527.676025 C 1150.355347 2528.498291 1149.404419 2529.319092 1148.453491 2530.141357 C 1140.370361 2536.308105 1128.482178 2541.037109 1115.644409 2545.35376 C 1102.806641 2549.464844 1089.969727 2553.574707 1077.131958 2557.891602 C 1078.082886 2558.302734 1078.55835 2558.71582 1079.509277 2558.921387 C 1128.482788 2567.96582 1173.6521 2580.298828 1215.969116 2594.276855 C 1217.87085 2595.099121 1219.772705 2595.304199 1221.674561 2595.304199 C 1222.625488 2595.304199 1224.054199 2595.302979 1225.480591 2594.891846 L 1268.272095 2587.491943 C 1271.600342 2587.080811 1272.55127 2586.46582 1272.55127 2585.849121 C 1272.55127 2585.232422 1272.075806 2584.821289 1271.124878 2583.999023 C 1252.581299 2569.610107 1231.184448 2556.043457 1210.739014 2542.27124 C 1197.901245 2533.432129 1188.392578 2523.974609 1178.883057 2514.313477 C 1177.932129 2513.285889 1176.981201 2512.259277 1176.505737 2511.025879 C 1176.030273 2510.203613 1175.55481 2509.380127 1175.55481 2508.763428 C 1175.55481 2506.296875 1178.882935 2505.063721 1185.539551 2504.035889 C 1196.475464 2502.802734 1207.885986 2502.804443 1218.821777 2502.393311 C 1278.255859 2500.337646 1336.739624 2497.04834 1392.845337 2488.620605 C 1459.411377 2478.753906 1518.846069 2463.540527 1572.574341 2444.012939 C 1577.804565 2441.957275 1582.085693 2439.903564 1586.36499 2437.642578 C 1589.217773 2436.203613 1591.119629 2434.764404 1591.119629 2433.120117 C 1591.119629 2432.297852 1590.644165 2431.270264 1588.74231 2430.242432 C 1588.266846 2429.831299 1587.791382 2429.418701 1587.791382 2429.007568 C 1587.791382 2428.596436 1587.791382 2428.390625 1588.74231 2428.185059 C 1589.217773 2427.979492 1589.693237 2427.97998 1590.644165 2427.97998 C 1591.595093 2427.97998 1593.021484 2428.39209 1593.972412 2428.597412 C 1596.349731 2429.419678 1597.300659 2430.651855 1598.727051 2431.885254 C 1603.481812 2436.613037 1607.76062 2441.342285 1613.466309 2446.070068 C 1615.368164 2447.509033 1616.319092 2449.1521 1616.319092 2450.385254 C 1616.319092 2452.646484 1613.941772 2454.702393 1610.613525 2456.757813 C 1600.153198 2462.308105 1587.789429 2466.831299 1574.95166 2471.147949 C 1501.253418 2495.197998 1419.473145 2512.053711 1327.707031 2518.426025 C 1293.948486 2520.687012 1260.665527 2522.536377 1226.431519 2523.358643 C 1220.250244 2523.564209 1214.067383 2524.180664 1207.410767 2524.38623 C 1204.08252 2524.591797 1202.180664 2525.003906 1202.180664 2525.826172 C 1202.180664 2526.237061 1203.131592 2527.058838 1204.557983 2527.881104 C 1216.920288 2536.103516 1229.283936 2544.531006 1241.64624 2552.958984 C 1254.959473 2562.414551 1267.796387 2572.282471 1279.683228 2582.14917 C 1281.109619 2583.587891 1282.536011 2584.204102 1284.913208 2584.204102 C 1285.864136 2584.204102 1287.290527 2583.997314 1289.192383 2583.791748 C 1368.596313 2569.402832 1447.526123 2553.986084 1527.405518 2540.213867 C 1551.654663 2536.102783 1575.904297 2531.582031 1601.10437 2528.498535 C 1603.957153 2528.087402 1606.809937 2527.881592 1609.187256 2527.676025 C 1610.138184 2527.676025 1611.088989 2527.470947 1611.564453 2527.470947 C 1613.941772 2527.470947 1615.843628 2528.087646 1616.794556 2529.321045 C 1622.02478 2534.871094 1627.730103 2540.213867 1633.435791 2545.763916 C 1633.911255 2546.175049 1634.386719 2546.792725 1634.386719 2547.203857 Z M 1599.617065 2322.058105 C 1595.734131 2317.595947 1592.483887 2313.042969 1590.168701 2308.346191 C 1589.217773 2306.496338 1587.791382 2305.878906 1585.889526 2305.878906 C 1584.463135 2305.878906 1583.034546 2306.290039 1580.657227 2306.701172 C 1478.906494 2326.845703 1377.155151 2346.990723 1273.502197 2365.079346 C 1208.362549 2376.38501 1142.74707 2386.662598 1073.803711 2393.034668 C 1070.475464 2393.240234 1069.524536 2393.857422 1069.524536 2394.679688 C 1069.524536 2395.09082 1069.524536 2395.708496 1070 2396.119629 C 1071.901978 2401.875244 1074.754639 2407.631104 1074.754639 2413.592285 C 1074.754639 2415.193115 1074.4646 2416.670898 1074.112427 2418.216309 C 1102.399292 2413.228516 1131.245605 2408.827881 1159.864624 2404.134766 C 1204.083374 2396.94043 1247.826416 2389.336182 1291.569702 2381.31958 C 1294.897949 2380.702881 1296.324341 2379.880371 1296.324341 2378.646973 L 1296.324341 2378.029541 C 1295.373413 2375.974121 1294.897949 2373.713135 1294.422485 2371.451904 L 1294.422485 2370.836914 C 1294.422485 2370.014648 1294.897949 2369.602051 1296.324341 2369.602051 C 1297.275269 2369.602051 1298.226196 2369.80835 1299.652588 2370.219238 C 1304.882813 2371.658203 1310.114868 2373.097412 1315.345093 2374.741943 C 1317.246948 2375.358643 1318.67334 2375.564453 1320.575195 2375.564453 C 1322.001587 2375.564453 1323.903442 2375.35791 1325.805176 2374.947021 C 1388.092163 2363.435791 1450.379395 2351.307129 1512.66626 2339.179199 C 1541.803955 2333.538818 1570.547363 2327.727783 1599.617065 2322.058105 Z M 1446.574829 1748.204956 C 1446.574829 1739.160522 1445.148438 1730.115845 1444.19751 1720.454712 C 1370.974976 1743.065918 1298.227661 1765.05896 1223.578735 1786.848022 C 1224.529663 1786.642578 1225.480591 1786.643066 1226.431519 1786.643066 L 1227.85791 1786.643066 C 1299.178589 1777.187378 1370.024048 1767.526855 1441.344727 1757.660156 C 1445.14856 1757.043457 1446.099365 1756.01416 1446.099365 1754.575317 C 1446.099365 1752.519653 1446.574829 1750.260498 1446.574829 1748.204956 Z M 1318.197876 2632.714844 C 1315.820557 2623.464844 1308.686646 2615.243164 1299.652588 2607.431885 C 1299.177124 2606.815186 1298.226196 2606.609375 1297.275269 2606.609375 C 1295.848877 2606.609375 1294.897949 2606.813965 1293.947021 2607.019531 C 1286.339355 2608.458496 1278.256958 2609.898682 1270.649414 2611.13208 C 1268.272095 2611.543213 1266.845703 2611.748535 1266.845703 2612.159668 C 1266.845703 2612.570557 1267.796631 2612.98291 1269.223022 2613.599365 C 1282.536255 2618.738281 1294.897705 2624.287842 1308.210938 2629.632324 C 1310.588257 2630.659912 1312.967651 2632.098145 1318.197876 2632.714844 Z"/>
    </g>
</svg>
